<svg id="Vrstva_1" data-name="Vrstva 1" xmlns="http://www.w3.org/2000/svg" viewBox="0 0 106.97 20.52"><defs><style>.cls-1{fill:#1d1d1b;}</style></defs><title>logo</title><path class="cls-1" d="M12,20.24c0-7.33-1.8-8.55-4.22-8.55H2.68v8.55H0V.29H8.86c4.08,0,5.79,2.39,5.79,5.27s-1.45,4.73-4.42,5.1c2.31.37,4.45,2.08,4.45,9.58ZM8.18,9.61c2.74,0,3.68-1.6,3.68-3.71s-.94-3.51-3.68-3.51H2.68V9.61Z"/><path class="cls-1" d="M35.48,14.37c-.62,3.64-3.73,6.15-8.12,6.15-5.81,0-9.26-4.56-9.26-10.26S21.55,0,27.36,0c4.39,0,7.5,2.51,8.12,6.16H32.72c-.51-2.31-2.45-3.82-5.36-3.82-4.22,0-6.36,3.3-6.36,7.92s2.14,7.93,6.36,7.93c2.91,0,4.85-1.52,5.36-3.82Z"/><path class="cls-1" d="M42.61.29l7.86,14.79a13.3,13.3,0,0,1,.83,2.14c-.06-.63-.11-1.77-.11-2.4V.29h2.65v20H50.39L42.24,4.7a20.51,20.51,0,0,1-.83-2.13c.06.57.09,1.65.09,2.22V20.24H38.82V.29Z"/><path class="cls-1" d="M95.08.29l9,10.46-8.4,9.49H92.46l8.44-9.35L91.81.29ZM107,.29v20h-2.68V.29Z"/><path class="cls-1" d="M60.14.29l9,10.46-8.4,9.49H57.52L66,10.89,56.87.29ZM72,.29v20H69.35V.29Z"/><path class="cls-1" d="M90.15,5.36H87.39c-.31-1.82-1.63-3.22-4.82-3.22S78,3.74,78,5.45c0,2.39,2,2.93,4.7,3.3,4.22.49,7.59,1.74,7.59,5.65,0,3.39-2.77,6.12-7.79,6.12-4.5,0-7.32-2.33-7.66-5.41h2.79c.26,1.85,1.77,3.31,5,3.31s4.76-1.74,4.76-3.65c0-2.63-2.2-3.2-5.22-3.62-4.22-.55-7-1.66-7-5.48,0-3,2.48-5.67,7.44-5.67C87.13,0,89.81,2.31,90.15,5.36Z"/></svg>