<svg xmlns="http://www.w3.org/2000/svg" xmlns:xlink="http://www.w3.org/1999/xlink" width="126.2mm" height="82.63mm" viewBox="0 0 357.7323 234.2268"><defs><style>.cls-1,.cls-2,.cls-3,.cls-4,.cls-5,.cls-7,.cls-8{fill:none;}.cls-2,.cls-3,.cls-4,.cls-5{stroke:#000;}.cls-2,.cls-3,.cls-4,.cls-5,.cls-7,.cls-8{stroke-linecap:round;stroke-linejoin:round;}.cls-2{stroke-width:0.1984px;}.cls-3,.cls-5{stroke-width:0.1417px;}.cls-3{stroke-dasharray:1.4173 1.4173 0.2835;}.cls-4{stroke-width:0.5669px;}.cls-6{clip-path:url(#clip-path);}.cls-7,.cls-8{stroke:#787878;stroke-width:0.085px;}.cls-7{fill-rule:evenodd;}.cls-9{fill:red;}</style><clipPath id="clip-path"><rect class="cls-1" x="-60.5284" y="-1.5103" width="458.9125" height="242.3497"/></clipPath></defs><g id="_.30_KÓTY" data-name=".30_KÓTY"><g id="LINE"><line class="cls-2" x1="90.4861" y1="107.7359" x2="92.2385" y2="108.2054"/></g><g id="LINE-2" data-name="LINE"><line class="cls-2" x1="92.2385" y1="108.2054" x2="101.0003" y2="110.553"/></g><g id="LINE-3" data-name="LINE"><line class="cls-2" x1="101.6209" y1="110.7193" x2="106.2574" y2="111.9615"/></g><g id="LINE-4" data-name="LINE"><line class="cls-2" x1="104.4235" y1="118.807" x2="88.6522" y2="114.5813"/></g><g id="LINE-5" data-name="LINE"><line class="cls-2" x1="88.6522" y1="114.5813" x2="86.8998" y2="114.1118"/></g><g id="ARC"><path class="cls-2" d="M104.5523,118.8415a3.5438,3.5438,0,0,0,1.9307-6.82q-.0481-.0135-.0967-.0259"/></g><g id="ARC-2" data-name="ARC"><path class="cls-2" d="M90.5411,107.5306a.2126.2126,0,0,0-.11.4107"/></g><g id="ARC-3" data-name="ARC"><path class="cls-2" d="M90.4311,107.9413a.2126.2126,0,1,0,.11-.4107"/></g><g id="LINE-6" data-name="LINE"><line class="cls-2" x1="87.7718" y1="115.1506" x2="86.8998" y2="114.1118"/></g><g id="LWPOLYLINE"><line class="cls-2" x1="98.3678" y1="113.369" x2="103.633" y2="107.7368"/></g><g id="LWPOLYLINE-2" data-name="LWPOLYLINE"><line class="cls-2" x1="98.9884" y1="113.5353" x2="104.2536" y2="107.9031"/></g><g id="LINE-7" data-name="LINE"><line class="cls-2" x1="88.1744" y1="113.6481" x2="86.8998" y2="114.1118"/></g><g id="LINE-8" data-name="LINE"><line class="cls-2" x1="100.1284" y1="109.5141" x2="101.0004" y2="110.5529"/></g><g id="LINE-9" data-name="LINE"><line class="cls-2" x1="99.7258" y1="111.0166" x2="101.0004" y2="110.5529"/></g><g id="ARC-4" data-name="ARC"><path class="cls-2" d="M86.44,51.3546a5.1023,5.1023,0,0,0-5.1023,5.1023"/></g><g id="LWPOLYLINE-3" data-name="LWPOLYLINE"><line class="cls-2" x1="86.4398" y1="56.457" x2="86.4398" y2="51.3546"/></g><g id="ARC-5" data-name="ARC"><path class="cls-2" d="M108.5643,51.3546a5.1024,5.1024,0,0,0-5.1024,5.1023"/></g><g id="LWPOLYLINE-4" data-name="LWPOLYLINE"><line class="cls-2" x1="108.5642" y1="56.457" x2="108.5643" y2="51.3546"/></g><g id="LWPOLYLINE-5" data-name="LWPOLYLINE"><line class="cls-2" x1="104.3149" y1="80.0669" x2="100.3463" y2="80.0669"/></g><g id="ARC-6" data-name="ARC"><path class="cls-2" d="M104.3149,76.0984a3.9686,3.9686,0,0,0-3.9686,3.9685"/></g><g id="ARC-7" data-name="ARC"><path class="cls-2" d="M109.8658,85.8314a5.1024,5.1024,0,0,0-5.1023,5.1024"/></g><g id="LWPOLYLINE-6" data-name="LWPOLYLINE"><line class="cls-2" x1="109.8658" y1="90.9338" x2="109.8658" y2="85.8314"/></g><g id="ARC-8" data-name="ARC"><path class="cls-2" d="M109.8658,75.9745a5.1024,5.1024,0,0,0-5.1023,5.1024"/></g><g id="LWPOLYLINE-7" data-name="LWPOLYLINE"><line class="cls-2" x1="109.8658" y1="81.0769" x2="109.8658" y2="75.9745"/></g><g id="ARC-9" data-name="ARC"><path class="cls-2" d="M103.7479,69.2129a5.1024,5.1024,0,0,0,5.1024-5.1024"/></g><g id="LWPOLYLINE-8" data-name="LWPOLYLINE"><line class="cls-2" x1="103.7479" y1="64.1105" x2="108.8503" y2="64.1105"/></g><g id="LWPOLYLINE-9" data-name="LWPOLYLINE"><line class="cls-2" x1="76.6379" y1="80.1085" x2="80.6064" y2="80.1085"/></g><g id="ARC-10" data-name="ARC"><path class="cls-2" d="M80.6064,80.1085A3.9685,3.9685,0,0,0,76.6379,76.14"/></g><g id="ARC-11" data-name="ARC"><path class="cls-2" d="M76.0867,90.9753a5.1024,5.1024,0,0,0-5.1024-5.1024"/></g><g id="LWPOLYLINE-10" data-name="LWPOLYLINE"><line class="cls-2" x1="70.9843" y1="90.9753" x2="70.9843" y2="85.8729"/></g><g id="ARC-12" data-name="ARC"><path class="cls-2" d="M76.0867,81.1184a5.1024,5.1024,0,0,0-5.1024-5.1024"/></g><g id="LWPOLYLINE-11" data-name="LWPOLYLINE"><line class="cls-2" x1="70.9843" y1="81.1184" x2="70.9843" y2="76.016"/></g><g id="ARC-13" data-name="ARC"><path class="cls-2" d="M72.1024,64.152a5.1024,5.1024,0,0,0,5.1024,5.1024"/></g><g id="LWPOLYLINE-12" data-name="LWPOLYLINE"><line class="cls-2" x1="77.2048" y1="64.152" x2="72.1024" y2="64.152"/></g><g id="ARC-14" data-name="ARC"><path class="cls-2" d="M111.9684,62.5022A5.1024,5.1024,0,0,0,117.0708,57.4"/></g><g id="LWPOLYLINE-13" data-name="LWPOLYLINE"><line class="cls-2" x1="111.9684" y1="57.3999" x2="117.0708" y2="57.3998"/></g><g id="ARC-15" data-name="ARC"><path class="cls-2" d="M264.4677,51.3546a5.1023,5.1023,0,0,0-5.1023,5.1023"/></g><g id="LWPOLYLINE-14" data-name="LWPOLYLINE"><line class="cls-2" x1="264.4677" y1="56.457" x2="264.4677" y2="51.3546"/></g><g id="ARC-16" data-name="ARC"><path class="cls-2" d="M285.4464,51.3546a5.1024,5.1024,0,0,0-5.1024,5.1023"/></g><g id="LWPOLYLINE-15" data-name="LWPOLYLINE"><line class="cls-2" x1="285.4464" y1="56.457" x2="285.4464" y2="51.3546"/></g><g id="LWPOLYLINE-16" data-name="LWPOLYLINE"><line class="cls-2" x1="281.197" y1="80.0669" x2="277.2285" y2="80.0669"/></g><g id="ARC-17" data-name="ARC"><path class="cls-2" d="M281.197,76.0984a3.9685,3.9685,0,0,0-3.9685,3.9685"/></g><g id="ARC-18" data-name="ARC"><path class="cls-2" d="M286.748,85.8314a5.1024,5.1024,0,0,0-5.1024,5.1024"/></g><g id="LWPOLYLINE-17" data-name="LWPOLYLINE"><line class="cls-2" x1="286.748" y1="90.9338" x2="286.748" y2="85.8314"/></g><g id="ARC-19" data-name="ARC"><path class="cls-2" d="M286.748,75.9745a5.1024,5.1024,0,0,0-5.1024,5.1024"/></g><g id="LWPOLYLINE-18" data-name="LWPOLYLINE"><line class="cls-2" x1="286.748" y1="81.0769" x2="286.748" y2="75.9745"/></g><g id="ARC-20" data-name="ARC"><path class="cls-2" d="M280.63,69.2129a5.1024,5.1024,0,0,0,5.1023-5.1024"/></g><g id="LWPOLYLINE-19" data-name="LWPOLYLINE"><line class="cls-2" x1="280.6301" y1="64.1105" x2="285.7324" y2="64.1105"/></g><g id="LWPOLYLINE-20" data-name="LWPOLYLINE"><line class="cls-2" x1="253.52" y1="80.1085" x2="257.4885" y2="80.1085"/></g><g id="ARC-21" data-name="ARC"><path class="cls-2" d="M257.4885,80.1085A3.9684,3.9684,0,0,0,253.52,76.14"/></g><g id="ARC-22" data-name="ARC"><path class="cls-2" d="M252.9688,90.9753a5.1024,5.1024,0,0,0-5.1023-5.1024"/></g><g id="LWPOLYLINE-21" data-name="LWPOLYLINE"><line class="cls-2" x1="247.8665" y1="90.9753" x2="247.8665" y2="85.8729"/></g><g id="ARC-23" data-name="ARC"><path class="cls-2" d="M252.9688,81.1184a5.1024,5.1024,0,0,0-5.1023-5.1024"/></g><g id="LWPOLYLINE-22" data-name="LWPOLYLINE"><line class="cls-2" x1="247.8665" y1="81.1184" x2="247.8665" y2="76.016"/></g><g id="ARC-24" data-name="ARC"><path class="cls-2" d="M248.9846,64.152a5.1024,5.1024,0,0,0,5.1023,5.1024"/></g><g id="LWPOLYLINE-23" data-name="LWPOLYLINE"><line class="cls-2" x1="254.087" y1="64.152" x2="248.9846" y2="64.152"/></g><g id="ARC-25" data-name="ARC"><path class="cls-2" d="M240.6615,57.4a5.1024,5.1024,0,0,0,5.1024,5.1024"/></g><g id="LWPOLYLINE-24" data-name="LWPOLYLINE"><line class="cls-2" x1="245.7639" y1="57.3999" x2="240.6615" y2="57.3998"/></g><g id="ARC-26" data-name="ARC"><path class="cls-2" d="M63.7794,57.4a5.1024,5.1024,0,0,0,5.1023,5.1024"/></g><g id="LWPOLYLINE-25" data-name="LWPOLYLINE"><line class="cls-2" x1="68.8817" y1="57.3999" x2="63.7794" y2="57.3998"/></g><g id="ARC-27" data-name="ARC"><path class="cls-2" d="M288.8505,62.5022A5.1024,5.1024,0,0,0,293.9529,57.4"/></g><g id="LWPOLYLINE-26" data-name="LWPOLYLINE"><line class="cls-2" x1="288.8505" y1="57.3999" x2="293.9529" y2="57.3998"/></g><g id="ARC-28" data-name="ARC"><path class="cls-2" d="M83.117,116.62a5.1023,5.1023,0,1,0-9.857-2.641"/></g><g id="LINE-10" data-name="LINE"><line class="cls-2" x1="78.1885" y1="115.2993" x2="73.26" y2="113.9788"/></g><g id="ARC-29" data-name="ARC"><path class="cls-2" d="M76.8548,100.5619a5.1024,5.1024,0,0,0,9.8571,2.641"/></g><g id="LINE-11" data-name="LINE"><line class="cls-2" x1="81.7833" y1="101.8824" x2="76.8548" y2="100.5619"/></g><g id="LINE-12" data-name="LINE"><line class="cls-2" x1="267.2462" y1="107.7359" x2="265.4938" y2="108.2054"/></g><g id="LINE-13" data-name="LINE"><line class="cls-2" x1="265.4938" y1="108.2054" x2="256.732" y2="110.553"/></g><g id="LINE-14" data-name="LINE"><line class="cls-2" x1="256.1114" y1="110.7193" x2="251.4749" y2="111.9615"/></g><g id="LINE-15" data-name="LINE"><line class="cls-2" x1="253.3088" y1="118.807" x2="269.0801" y2="114.5813"/></g><g id="LINE-16" data-name="LINE"><line class="cls-2" x1="269.0801" y1="114.5813" x2="270.8325" y2="114.1118"/></g><g id="ARC-30" data-name="ARC"><path class="cls-2" d="M251.346,111.996a3.5438,3.5438,0,0,0,1.7373,6.8714q.0486-.0123.0967-.0259"/></g><g id="ARC-31" data-name="ARC"><path class="cls-2" d="M267.3012,107.9413a.2126.2126,0,1,0-.11-.4107"/></g><g id="ARC-32" data-name="ARC"><path class="cls-2" d="M267.1912,107.5306a.2126.2126,0,0,0,.11.4107"/></g><g id="LINE-17" data-name="LINE"><line class="cls-2" x1="269.9605" y1="115.1506" x2="270.8325" y2="114.1118"/></g><g id="LWPOLYLINE-27" data-name="LWPOLYLINE"><line class="cls-2" x1="259.3646" y1="113.369" x2="254.0993" y2="107.7368"/></g><g id="LWPOLYLINE-28" data-name="LWPOLYLINE"><line class="cls-2" x1="258.7439" y1="113.5353" x2="253.4787" y2="107.9031"/></g><g id="LINE-18" data-name="LINE"><line class="cls-2" x1="269.5579" y1="113.6481" x2="270.8325" y2="114.1118"/></g><g id="LINE-19" data-name="LINE"><line class="cls-2" x1="257.604" y1="109.5141" x2="256.7319" y2="110.5529"/></g><g id="LINE-20" data-name="LINE"><line class="cls-2" x1="258.0065" y1="111.0166" x2="256.7319" y2="110.5529"/></g><g id="ARC-33" data-name="ARC"><path class="cls-2" d="M284.4724,113.9788a5.1024,5.1024,0,0,0-9.8571,2.641"/></g><g id="LINE-21" data-name="LINE"><line class="cls-2" x1="279.5438" y1="115.2993" x2="284.4724" y2="113.9788"/></g><g id="ARC-34" data-name="ARC"><path class="cls-2" d="M271.0205,103.2029a5.1023,5.1023,0,0,0,9.857-2.641"/></g><g id="LINE-22" data-name="LINE"><line class="cls-2" x1="275.949" y1="101.8824" x2="280.8775" y2="100.5619"/></g><g id="ARC-35" data-name="ARC"><path class="cls-2" d="M259.3654,56.457a5.1024,5.1024,0,0,0-5.1024-5.1024"/></g><g id="LWPOLYLINE-29" data-name="LWPOLYLINE"><line class="cls-2" x1="254.263" y1="56.457" x2="254.263" y2="51.3546"/></g></g><g id="_.06_NAD" data-name=".06_NAD"><g id="CIRCLE"><path class="cls-3" d="M109.9842,143.1557a68.882,68.882,0,1,1,68.8819,68.882,68.882,68.882,0,0,1-68.8819-68.882Z"/></g><g id="LWPOLYLINE-30" data-name="LWPOLYLINE"><line class="cls-3" x1="100.12" y1="113.8387" x2="100.6885" y2="111.7167"/></g><g id="LWPOLYLINE-31" data-name="LWPOLYLINE"><line class="cls-3" x1="101.8723" y1="114.3082" x2="103.3213" y2="108.9004"/></g><g id="LWPOLYLINE-32" data-name="LWPOLYLINE"><polyline class="cls-3" points="103.633 107.737 105.385 108.206 103.625 114.778 101.872 114.308"/></g><g id="LWPOLYLINE-33" data-name="LWPOLYLINE"><polyline class="cls-3" points="103.625 114.778 105.386 108.206 107.138 108.676 105.377 115.247 103.625 114.778"/></g><g id="LWPOLYLINE-34" data-name="LWPOLYLINE"><polyline class="cls-3" points="86.019 117.398 87.78 110.826 89.533 111.296 87.772 117.867 86.019 117.398"/></g><g id="LWPOLYLINE-35" data-name="LWPOLYLINE"><polyline class="cls-3" points="87.772 117.867 89.533 111.296 91.285 111.765 89.525 118.337 87.772 117.867"/></g><g id="LWPOLYLINE-36" data-name="LWPOLYLINE"><polyline class="cls-3" points="89.525 118.337 91.285 111.765 93.038 112.235 91.277 118.806 89.525 118.337"/></g><g id="LWPOLYLINE-37" data-name="LWPOLYLINE"><polyline class="cls-3" points="91.277 118.806 93.038 112.235 94.79 112.704 93.03 119.276 91.277 118.806"/></g><g id="LWPOLYLINE-38" data-name="LWPOLYLINE"><polyline class="cls-3" points="93.03 119.276 94.79 112.704 96.543 113.174 94.782 119.745 93.03 119.276"/></g><g id="LWPOLYLINE-39" data-name="LWPOLYLINE"><polyline class="cls-3" points="94.782 119.745 96.543 113.174 98.295 113.643 96.535 120.215 94.782 119.745"/></g><g id="LWPOLYLINE-40" data-name="LWPOLYLINE"><polyline class="cls-3" points="96.535 120.215 98.295 113.643 100.048 114.113 98.287 120.684 96.535 120.215"/></g><g id="LWPOLYLINE-41" data-name="LWPOLYLINE"><polyline class="cls-3" points="98.286 120.684 100.047 114.112 101.799 114.582 100.039 121.153 98.286 120.684"/></g><g id="LWPOLYLINE-42" data-name="LWPOLYLINE"><polyline class="cls-3" points="100.038 121.154 101.799 114.582 103.551 115.052 101.791 121.623 100.038 121.154"/></g><g id="LWPOLYLINE-43" data-name="LWPOLYLINE"><polyline class="cls-3" points="101.791 121.623 103.552 115.051 105.304 115.521 103.544 122.092 101.791 121.623"/></g><g id="LWPOLYLINE-44" data-name="LWPOLYLINE"><path class="cls-3" d="M220.1535,158.1831l21.8423,7.95a67.1811,67.1811,0,0,1-126.2593,0l21.8423-7.95a43.9474,43.9474,0,0,0,82.5747,0"/></g><g id="LWPOLYLINE-45" data-name="LWPOLYLINE"><path class="cls-3" d="M241.9958,120.1784a67.1811,67.1811,0,0,0-126.2593,0l21.8423,7.95a43.9474,43.9474,0,0,1,82.5747,0Z"/></g><g id="LWPOLYLINE-46" data-name="LWPOLYLINE"><line class="cls-3" x1="77.8951" y1="116.3943" x2="82.8236" y2="117.7149"/></g><g id="LWPOLYLINE-47" data-name="LWPOLYLINE"><line class="cls-3" x1="83.1171" y1="116.6196" x2="78.1885" y2="115.2993"/></g><g id="LWPOLYLINE-48" data-name="LWPOLYLINE"><line class="cls-3" x1="82.0767" y1="100.7874" x2="87.0052" y2="102.1079"/></g><g id="LWPOLYLINE-49" data-name="LWPOLYLINE"><line class="cls-3" x1="86.7118" y1="103.2031" x2="81.7833" y2="101.8824"/></g><g id="LWPOLYLINE-50" data-name="LWPOLYLINE"><line class="cls-3" x1="257.6123" y1="113.8387" x2="257.0438" y2="111.7167"/></g><g id="LWPOLYLINE-51" data-name="LWPOLYLINE"><line class="cls-3" x1="255.86" y1="114.3082" x2="254.4111" y2="108.9004"/></g><g id="LWPOLYLINE-52" data-name="LWPOLYLINE"><polyline class="cls-3" points="254.099 107.737 252.347 108.206 254.107 114.778 255.86 114.308"/></g><g id="LWPOLYLINE-53" data-name="LWPOLYLINE"><polyline class="cls-3" points="254.107 114.778 252.347 108.206 250.594 108.676 252.355 115.247 254.107 114.778"/></g><g id="LWPOLYLINE-54" data-name="LWPOLYLINE"><polyline class="cls-3" points="271.713 117.398 269.952 110.826 268.2 111.296 269.96 117.867 271.713 117.398"/></g><g id="LWPOLYLINE-55" data-name="LWPOLYLINE"><polyline class="cls-3" points="269.96 117.867 268.2 111.296 266.447 111.765 268.208 118.337 269.96 117.867"/></g><g id="LWPOLYLINE-56" data-name="LWPOLYLINE"><polyline class="cls-3" points="268.208 118.337 266.447 111.765 264.695 112.235 266.455 118.806 268.208 118.337"/></g><g id="LWPOLYLINE-57" data-name="LWPOLYLINE"><polyline class="cls-3" points="266.455 118.806 264.695 112.235 262.942 112.704 264.703 119.276 266.455 118.806"/></g><g id="LWPOLYLINE-58" data-name="LWPOLYLINE"><polyline class="cls-3" points="264.703 119.276 262.942 112.704 261.19 113.174 262.95 119.745 264.703 119.276"/></g><g id="LWPOLYLINE-59" data-name="LWPOLYLINE"><polyline class="cls-3" points="262.95 119.745 261.19 113.174 259.437 113.643 261.198 120.215 262.95 119.745"/></g><g id="LWPOLYLINE-60" data-name="LWPOLYLINE"><polyline class="cls-3" points="261.198 120.215 259.437 113.643 257.685 114.113 259.445 120.684 261.198 120.215"/></g><g id="LWPOLYLINE-61" data-name="LWPOLYLINE"><polyline class="cls-3" points="259.446 120.684 257.686 114.112 255.933 114.582 257.694 121.153 259.446 120.684"/></g><g id="LWPOLYLINE-62" data-name="LWPOLYLINE"><polyline class="cls-3" points="257.694 121.154 255.933 114.582 254.181 115.052 255.941 121.623 257.694 121.154"/></g><g id="LWPOLYLINE-63" data-name="LWPOLYLINE"><polyline class="cls-3" points="255.941 121.623 254.181 115.051 252.428 115.521 254.189 122.092 255.941 121.623"/></g><g id="LWPOLYLINE-64" data-name="LWPOLYLINE"><line class="cls-3" x1="279.8372" y1="116.3943" x2="274.9087" y2="117.7149"/></g><g id="LWPOLYLINE-65" data-name="LWPOLYLINE"><line class="cls-3" x1="274.6153" y1="116.6196" x2="279.5438" y2="115.2993"/></g><g id="LWPOLYLINE-66" data-name="LWPOLYLINE"><line class="cls-3" x1="275.6556" y1="100.7874" x2="270.7271" y2="102.1079"/></g><g id="LWPOLYLINE-67" data-name="LWPOLYLINE"><line class="cls-3" x1="271.0205" y1="103.2031" x2="275.949" y2="101.8824"/></g></g><g id="_.01_ŘEZ" data-name=".01_ŘEZ"><g id="LWPOLYLINE-68" data-name="LWPOLYLINE"><rect class="cls-4" x="325.701" y="205.0928" width="4.5354" height="1.4173" rx="0.5669" transform="translate(-48.2499 114.2739) rotate(-18.4349)"/></g><g id="CIRCLE-2" data-name="CIRCLE"><path class="cls-4" d="M22.6769,74.8406a1.4174,1.4174,0,1,1,1.4174,1.4174,1.4174,1.4174,0,0,1-1.4174-1.4174Z"/></g><g id="CIRCLE-3" data-name="CIRCLE"><path class="cls-4" d="M155.3385,29.4862a1.4174,1.4174,0,1,1,1.4174,1.4174,1.4174,1.4174,0,0,1-1.4174-1.4174Z"/></g><g id="CIRCLE-4" data-name="CIRCLE"><path class="cls-4" d="M199.5591,29.4862a1.4173,1.4173,0,1,1,1.4173,1.4174,1.4173,1.4173,0,0,1-1.4173-1.4174Z"/></g><g id="CIRCLE-5" data-name="CIRCLE"><path class="cls-4" d="M332.2207,74.8406a1.4173,1.4173,0,1,1,1.4173,1.4174,1.4173,1.4173,0,0,1-1.4173-1.4174Z"/></g><g id="CIRCLE-6" data-name="CIRCLE"><path class="cls-4" d="M111.118,29.4862a1.4174,1.4174,0,1,1,1.4173,1.4174,1.4174,1.4174,0,0,1-1.4173-1.4174Z"/></g><g id="CIRCLE-7" data-name="CIRCLE"><path class="cls-4" d="M66.8975,29.4862a1.4173,1.4173,0,1,1,1.4173,1.4174,1.4173,1.4173,0,0,1-1.4173-1.4174Z"/></g><g id="CIRCLE-8" data-name="CIRCLE"><path class="cls-4" d="M22.6769,29.4862a1.4174,1.4174,0,1,1,1.4174,1.4174,1.4174,1.4174,0,0,1-1.4174-1.4174Z"/></g><g id="CIRCLE-9" data-name="CIRCLE"><path class="cls-4" d="M243.78,29.4862a1.4174,1.4174,0,1,1,1.4173,1.4174,1.4174,1.4174,0,0,1-1.4173-1.4174Z"/></g><g id="CIRCLE-10" data-name="CIRCLE"><path class="cls-4" d="M288,29.4862a1.4173,1.4173,0,1,1,1.4173,1.4174A1.4173,1.4173,0,0,1,288,29.4862Z"/></g><g id="CIRCLE-11" data-name="CIRCLE"><path class="cls-4" d="M332.2207,29.4862a1.4173,1.4173,0,1,1,1.4173,1.4174,1.4173,1.4173,0,0,1-1.4173-1.4174Z"/></g><g id="CIRCLE-12" data-name="CIRCLE"><path class="cls-4" d="M66.8975,74.8406a1.4173,1.4173,0,1,1,1.4173,1.4174,1.4173,1.4173,0,0,1-1.4173-1.4174Z"/></g><g id="CIRCLE-13" data-name="CIRCLE"><path class="cls-4" d="M288,74.8406a1.4173,1.4173,0,1,1,1.4173,1.4174A1.4173,1.4173,0,0,1,288,74.8406Z"/></g><g id="CIRCLE-14" data-name="CIRCLE"><path class="cls-4" d="M243.78,74.8406a1.4174,1.4174,0,1,1,1.4173,1.4174,1.4174,1.4174,0,0,1-1.4173-1.4174Z"/></g><g id="CIRCLE-15" data-name="CIRCLE"><path class="cls-4" d="M155.3385,74.8406a1.4174,1.4174,0,1,1,1.4174,1.4174,1.4174,1.4174,0,0,1-1.4174-1.4174Z"/></g><g id="CIRCLE-16" data-name="CIRCLE"><path class="cls-4" d="M199.5591,74.8406a1.4173,1.4173,0,1,1,1.4173,1.4174,1.4173,1.4173,0,0,1-1.4173-1.4174Z"/></g><g id="CIRCLE-17" data-name="CIRCLE"><path class="cls-4" d="M72.5668,143.1557a1.4173,1.4173,0,1,1,1.4173,1.4173,1.4172,1.4172,0,0,1-1.4173-1.4173Z"/></g><g id="CIRCLE-18" data-name="CIRCLE"><path class="cls-4" d="M28.3462,120.195a1.4174,1.4174,0,1,1,1.4174,1.4174,1.4174,1.4174,0,0,1-1.4174-1.4174Z"/></g><g id="CIRCLE-19" data-name="CIRCLE"><path class="cls-4" d="M28.3462,166.1164a1.4174,1.4174,0,1,1,1.4174,1.4173,1.4174,1.4174,0,0,1-1.4174-1.4173Z"/></g><g id="CIRCLE-20" data-name="CIRCLE"><path class="cls-4" d="M134.3621,143.1557a1.4174,1.4174,0,1,1,1.4174,1.4173,1.4173,1.4173,0,0,1-1.4174-1.4173Z"/></g><g id="CIRCLE-21" data-name="CIRCLE"><path class="cls-4" d="M220.5355,143.1557a1.4173,1.4173,0,1,1,1.4173,1.4173,1.4172,1.4172,0,0,1-1.4173-1.4173Z"/></g><g id="CIRCLE-22" data-name="CIRCLE"><path class="cls-4" d="M282.3309,143.1557a1.4173,1.4173,0,1,1,1.4173,1.4173,1.4172,1.4172,0,0,1-1.4173-1.4173Z"/></g><g id="CIRCLE-23" data-name="CIRCLE"><path class="cls-4" d="M326.5514,120.195a1.4173,1.4173,0,1,1,1.4173,1.4174,1.4173,1.4173,0,0,1-1.4173-1.4174Z"/></g><g id="CIRCLE-24" data-name="CIRCLE"><path class="cls-4" d="M326.5514,166.1164a1.4173,1.4173,0,1,1,1.4173,1.4173,1.4173,1.4173,0,0,1-1.4173-1.4173Z"/></g><g id="CIRCLE-25" data-name="CIRCLE"><path class="cls-4" d="M156.1889,211.4708a1.4174,1.4174,0,1,1,1.4174,1.4173,1.4174,1.4174,0,0,1-1.4174-1.4173Z"/></g><g id="CIRCLE-26" data-name="CIRCLE"><path class="cls-4" d="M198.7087,211.4708a1.4173,1.4173,0,1,1,1.4173,1.4173,1.4173,1.4173,0,0,1-1.4173-1.4173Z"/></g><g id="LWPOLYLINE-69" data-name="LWPOLYLINE"><path class="cls-4" d="M82.0767,100.7873,71.3985,97.9262a8.0789,8.0789,0,0,0-5.3514,15.1954l11.848,3.2727.2934-1.095L67.51,112.4382a6.945,6.945,0,1,1,3.5948-13.4168l10.6784,2.8611"/></g><g id="LWPOLYLINE-70" data-name="LWPOLYLINE"><path class="cls-4" d="M75.7178,104.8055l1.0635-3.9695-5.75-1.5408a6.6616,6.6616,0,1,0-3.4488,12.869l5.7506,1.5408,1.064-3.971"/></g><g id="LWPOLYLINE-71" data-name="LWPOLYLINE"><path class="cls-4" d="M74.6225,104.512l.77-2.8742L70.738,100.39a5.5277,5.5277,0,1,0-2.8618,10.6786l4.6553,1.2473.7705-2.8757"/></g><g id="LWPOLYLINE-72" data-name="LWPOLYLINE"><line class="cls-4" x1="74.6225" y1="104.512" x2="75.7178" y2="104.8055"/></g><g id="LWPOLYLINE-73" data-name="LWPOLYLINE"><line class="cls-4" x1="73.302" y1="109.4406" x2="74.3973" y2="109.734"/></g><g id="LWPOLYLINE-74" data-name="LWPOLYLINE"><path class="cls-4" d="M87.0071,102.1011l20.5338,5.5089a8.0789,8.0789,0,1,1-4.1817,15.6072l-20.5356-5.5021"/></g><g id="LWPOLYLINE-75" data-name="LWPOLYLINE"><path class="cls-4" d="M86.7136,103.1964l20.5338,5.5088a6.945,6.945,0,0,1-3.5948,13.4168L83.117,116.62"/></g><g id="LWPOLYLINE-76" data-name="LWPOLYLINE"><line class="cls-4" x1="77.895" y1="116.3946" x2="78.1885" y2="115.2993"/></g><g id="CIRCLE-27" data-name="CIRCLE"><path class="cls-4" d="M294.811,182.6725a1.4174,1.4174,0,1,1,1.4173,1.4174,1.4174,1.4174,0,0,1-1.4173-1.4174Z"/></g><g id="CIRCLE-28" data-name="CIRCLE"><path class="cls-4" d="M242.7875,168.7337a1.4174,1.4174,0,1,1,1.4173,1.4173,1.4173,1.4173,0,0,1-1.4173-1.4173Z"/></g><g id="CIRCLE-29" data-name="CIRCLE"><path class="cls-4" d="M112.11,168.7337a1.4174,1.4174,0,1,1,1.4173,1.4173,1.4173,1.4173,0,0,1-1.4173-1.4173Z"/></g><g id="CIRCLE-30" data-name="CIRCLE"><path class="cls-4" d="M60.0866,182.6725a1.4174,1.4174,0,1,1,1.4173,1.4174,1.4174,1.4174,0,0,1-1.4173-1.4174Z"/></g><g id="LWPOLYLINE-77" data-name="LWPOLYLINE"><line class="cls-4" x1="66.2879" y1="206.4682" x2="65.8397" y2="205.1236"/></g><g id="LWPOLYLINE-78" data-name="LWPOLYLINE"><path class="cls-4" d="M64.3607,205.6166l2.9581-.986a.7087.7087,0,0,1,.4482,1.3446l-2.9581.986-.0122.004a.7087.7087,0,0,1-.436-1.3486"/></g><g id="LWPOLYLINE-79" data-name="LWPOLYLINE"><line class="cls-4" x1="115.0272" y1="206.4682" x2="114.579" y2="205.1236"/></g><g id="LWPOLYLINE-80" data-name="LWPOLYLINE"><path class="cls-4" d="M113.1,205.6166l2.9581-.986a.7087.7087,0,0,1,.4482,1.3446l-2.9581.986-.0122.004a.7087.7087,0,1,1-.436-1.3486"/></g><g id="LWPOLYLINE-81" data-name="LWPOLYLINE"><line class="cls-4" x1="29.5227" y1="206.4682" x2="29.9709" y2="205.1236"/></g><g id="LWPOLYLINE-82" data-name="LWPOLYLINE"><path class="cls-4" d="M31.45,205.6166l-2.9581-.986a.7087.7087,0,1,0-.4482,1.3446l2.9581.986a.7087.7087,0,0,0,.46-1.3406l-.0121-.004"/></g><g id="LWPOLYLINE-83" data-name="LWPOLYLINE"><line class="cls-4" x1="242.6884" y1="206.4682" x2="243.1366" y2="205.1236"/></g><g id="LWPOLYLINE-84" data-name="LWPOLYLINE"><path class="cls-4" d="M244.6156,205.6166l-2.9581-.986a.7087.7087,0,0,0-.4482,1.3446l2.9581.986a.7087.7087,0,0,0,.46-1.3406l-.0122-.004"/></g><g id="LWPOLYLINE-85" data-name="LWPOLYLINE"><line class="cls-4" x1="291.4444" y1="206.4682" x2="291.8926" y2="205.1236"/></g><g id="LWPOLYLINE-86" data-name="LWPOLYLINE"><path class="cls-4" d="M293.3716,205.6166l-2.9581-.986a.7087.7087,0,1,0-.4482,1.3446l2.9581.986a.7087.7087,0,0,0,.46-1.3406l-.0122-.004"/></g><g id="LWPOLYLINE-87" data-name="LWPOLYLINE"><line class="cls-4" x1="82.8236" y1="117.7151" x2="83.117" y2="116.6198"/></g><g id="LWPOLYLINE-88" data-name="LWPOLYLINE"><line class="cls-4" x1="82.0768" y1="100.7872" x2="81.7833" y2="101.8824"/></g><g id="LWPOLYLINE-89" data-name="LWPOLYLINE"><line class="cls-4" x1="87.0071" y1="102.1011" x2="86.7118" y2="103.2031"/></g><g id="LWPOLYLINE-90" data-name="LWPOLYLINE"><path class="cls-4" d="M275.6556,100.7873l10.6782-2.8611a8.0789,8.0789,0,0,1,5.3514,15.1954l-11.848,3.2727-.2934-1.095,10.6785-2.8611a6.945,6.945,0,0,0-3.5949-13.4168l-10.6784,2.8611"/></g><g id="LWPOLYLINE-91" data-name="LWPOLYLINE"><path class="cls-4" d="M282.0145,104.8055l-1.0635-3.9695,5.75-1.5408a6.6616,6.6616,0,1,1,3.4484,12.8691l-5.75,1.5407-1.0639-3.971"/></g><g id="LWPOLYLINE-92" data-name="LWPOLYLINE"><path class="cls-4" d="M283.11,104.512l-.77-2.8742,4.6546-1.2474a5.5277,5.5277,0,1,1,2.8615,10.6787l-4.655,1.2472-.7705-2.8757"/></g><g id="LWPOLYLINE-93" data-name="LWPOLYLINE"><line class="cls-4" x1="283.1098" y1="104.512" x2="282.0145" y2="104.8055"/></g><g id="LWPOLYLINE-94" data-name="LWPOLYLINE"><line class="cls-4" x1="284.4303" y1="109.4406" x2="283.3351" y2="109.734"/></g><g id="LWPOLYLINE-95" data-name="LWPOLYLINE"><path class="cls-4" d="M271.0187,103.1964l-20.5338,5.5088A6.945,6.945,0,0,0,254.08,122.122l20.5356-5.5022"/></g><g id="LWPOLYLINE-96" data-name="LWPOLYLINE"><path class="cls-4" d="M270.7249,102.1012,250.1911,107.61a8.0788,8.0788,0,1,0,4.182,15.6071l20.5357-5.5021"/></g><g id="LWPOLYLINE-97" data-name="LWPOLYLINE"><line class="cls-4" x1="279.8373" y1="116.3946" x2="279.5438" y2="115.2993"/></g><g id="LWPOLYLINE-98" data-name="LWPOLYLINE"><line class="cls-4" x1="274.9088" y1="117.7151" x2="274.6153" y2="116.6198"/></g><g id="LWPOLYLINE-99" data-name="LWPOLYLINE"><line class="cls-4" x1="275.6555" y1="100.7872" x2="275.949" y2="101.8824"/></g><g id="LWPOLYLINE-100" data-name="LWPOLYLINE"><line class="cls-4" x1="270.7253" y1="102.1011" x2="271.0205" y2="103.2031"/></g></g><g id="_.03_TENKÁ" data-name=".03_TENKÁ"><g id="LWPOLYLINE-101" data-name="LWPOLYLINE"><rect class="cls-2" x="65.9" y="101.3517" width="7.1433" height="8.8441" transform="translate(-50.6779 145.5038) rotate(-75.0008)"/></g><g id="LWPOLYLINE-102" data-name="LWPOLYLINE"><line class="cls-2" x1="66.1247" y1="101.1793" x2="72.7914" y2="110.3608"/></g><g id="LWPOLYLINE-103" data-name="LWPOLYLINE"><line class="cls-2" x1="64.2861" y1="108.0412" x2="74.6674" y2="103.4682"/></g><g id="LWPOLYLINE-104" data-name="LWPOLYLINE"><path class="cls-2" d="M89.6058,111.0216l15.9486,4.2728.01.0029a.1422.1422,0,0,1-.0927.2689l-17.6911-4.74"/></g><g id="LWPOLYLINE-105" data-name="LWPOLYLINE"><polyline class="cls-2" points="89.606 111.022 91.366 104.45 93.119 104.92 91.358 111.491 89.606 111.022"/></g><g id="LWPOLYLINE-106" data-name="LWPOLYLINE"><polyline class="cls-2" points="91.358 111.491 93.119 104.92 94.871 105.389 93.111 111.961 91.358 111.491"/></g><g id="LWPOLYLINE-107" data-name="LWPOLYLINE"><polyline class="cls-2" points="93.11 111.961 94.871 105.389 96.624 105.859 94.863 112.43 93.111 111.961"/></g><g id="LWPOLYLINE-108" data-name="LWPOLYLINE"><polyline class="cls-2" points="94.863 112.43 96.624 105.859 98.376 106.328 96.616 112.9 94.863 112.43"/></g><g id="LWPOLYLINE-109" data-name="LWPOLYLINE"><polyline class="cls-2" points="96.616 112.9 98.376 106.328 100.129 106.798 98.368 113.369 96.616 112.9"/></g><g id="LWPOLYLINE-110" data-name="LWPOLYLINE"><line class="cls-2" x1="101.8806" y1="107.2673" x2="101.0004" y2="110.5529"/></g><g id="LWPOLYLINE-111" data-name="LWPOLYLINE"><polyline class="cls-2" points="91.559 73.55 96.661 73.55 96.661 73.38 91.559 73.38 91.559 73.55"/></g><g id="LWPOLYLINE-112" data-name="LWPOLYLINE"><polyline class="cls-2" points="89.291 73.55 84.189 73.55 84.189 73.38 89.291 73.38 89.291 73.55"/></g><g id="LWPOLYLINE-113" data-name="LWPOLYLINE"><polyline class="cls-2" points="268.441 73.55 273.543 73.55 273.543 73.38 268.441 73.38 268.441 73.55"/></g><g id="LWPOLYLINE-114" data-name="LWPOLYLINE"><polyline class="cls-2" points="266.173 73.55 261.071 73.55 261.071 73.38 266.173 73.38 266.173 73.55"/></g><g id="LWPOLYLINE-115" data-name="LWPOLYLINE"><rect class="cls-2" x="283.8386" y="102.2021" width="8.8441" height="7.1433" transform="translate(-17.5536 78.207) rotate(-14.9992)"/></g><g id="LWPOLYLINE-116" data-name="LWPOLYLINE"><line class="cls-2" x1="291.6077" y1="101.1793" x2="284.941" y2="110.3608"/></g><g id="LWPOLYLINE-117" data-name="LWPOLYLINE"><line class="cls-2" x1="293.4462" y1="108.0412" x2="283.0649" y2="103.4682"/></g><g id="LWPOLYLINE-118" data-name="LWPOLYLINE"><path class="cls-2" d="M268.1265,111.0216l-15.9486,4.2728a.1422.1422,0,1,0,.0736.2747l.01-.0029,17.6911-4.74"/></g><g id="LWPOLYLINE-119" data-name="LWPOLYLINE"><polyline class="cls-2" points="268.127 111.022 266.366 104.45 264.613 104.92 266.374 111.491 268.127 111.022"/></g><g id="LWPOLYLINE-120" data-name="LWPOLYLINE"><polyline class="cls-2" points="266.374 111.491 264.613 104.92 262.861 105.389 264.622 111.961 266.374 111.491"/></g><g id="LWPOLYLINE-121" data-name="LWPOLYLINE"><polyline class="cls-2" points="264.622 111.961 262.861 105.389 261.109 105.859 262.869 112.43 264.622 111.961"/></g><g id="LWPOLYLINE-122" data-name="LWPOLYLINE"><polyline class="cls-2" points="262.869 112.43 261.109 105.859 259.356 106.328 261.117 112.9 262.869 112.43"/></g><g id="LWPOLYLINE-123" data-name="LWPOLYLINE"><polyline class="cls-2" points="261.117 112.9 259.356 106.328 257.604 106.798 259.364 113.369 261.117 112.9"/></g><g id="LWPOLYLINE-124" data-name="LWPOLYLINE"><line class="cls-2" x1="255.8517" y1="107.2673" x2="256.7319" y2="110.5529"/></g></g><g id="_.02_STŘEDNÍ" data-name=".02_STŘEDNÍ"><g id="LINE-23" data-name="LINE"><line class="cls-2" x1="86.4398" y1="55.3231" x2="89.8414" y2="55.3231"/></g><g id="LINE-24" data-name="LINE"><line class="cls-2" x1="90.9753" y1="55.3231" x2="103.4619" y2="55.3231"/></g><g id="LINE-25" data-name="LINE"><line class="cls-2" x1="108.5642" y1="55.3231" x2="111.9684" y2="55.3231"/></g><g id="LINE-26" data-name="LINE"><line class="cls-2" x1="86.4398" y1="56.457" x2="103.4619" y2="56.457"/></g><g id="LINE-27" data-name="LINE"><line class="cls-2" x1="108.5642" y1="56.457" x2="111.9684" y2="56.457"/></g><g id="LWPOLYLINE-125" data-name="LWPOLYLINE"><line class="cls-2" x1="111.9684" y1="30.6201" x2="111.9684" y2="55.3231"/></g><g id="LWPOLYLINE-126" data-name="LWPOLYLINE"><line class="cls-2" x1="111.9684" y1="56.457" x2="111.9684" y2="57.3999"/></g><g id="LWPOLYLINE-127" data-name="LWPOLYLINE"><line class="cls-2" x1="111.9684" y1="62.5022" x2="111.9684" y2="64.2109"/></g><g id="LWPOLYLINE-128" data-name="LWPOLYLINE"><line class="cls-2" x1="113.1023" y1="30.6201" x2="113.1023" y2="57.3999"/></g><g id="LWPOLYLINE-129" data-name="LWPOLYLINE"><line class="cls-2" x1="113.1023" y1="62.5022" x2="113.1023" y2="64.2109"/></g><g id="LWPOLYLINE-130" data-name="LWPOLYLINE"><line class="cls-2" x1="89.8414" y1="30.6201" x2="89.8414" y2="55.3231"/></g><g id="LWPOLYLINE-131" data-name="LWPOLYLINE"><line class="cls-2" x1="90.9753" y1="30.6201" x2="90.9753" y2="55.3231"/></g><g id="LINE-28" data-name="LINE"><line class="cls-2" x1="67.7479" y1="57.3999" x2="67.7479" y2="30.6201"/></g><g id="LINE-29" data-name="LINE"><line class="cls-2" x1="113.1023" y1="90.9753" x2="113.1023" y2="64.2109"/></g><g id="LINE-30" data-name="LINE"><line class="cls-2" x1="91.5589" y1="75.4491" x2="103.7479" y2="75.4491"/></g><g id="LINE-31" data-name="LINE"><line class="cls-2" x1="91.5589" y1="81.0769" x2="104.7635" y2="81.0769"/></g><g id="LINE-32" data-name="LINE"><line class="cls-2" x1="91.5589" y1="74.3152" x2="103.7479" y2="74.3152"/></g><g id="LWPOLYLINE-132" data-name="LWPOLYLINE"><line class="cls-2" x1="111.9684" y1="64.2109" x2="111.9684" y2="89.7999"/></g><g id="LWPOLYLINE-133" data-name="LWPOLYLINE"><line class="cls-2" x1="91.5589" y1="63.827" x2="91.5589" y2="89.8414"/></g><g id="LWPOLYLINE-134" data-name="LWPOLYLINE"><line class="cls-2" x1="90.992" y1="63.827" x2="90.992" y2="89.8414"/></g><g id="LWPOLYLINE-135" data-name="LWPOLYLINE"><line class="cls-2" x1="89.2912" y1="63.827" x2="89.2912" y2="89.8414"/></g><g id="LWPOLYLINE-136" data-name="LWPOLYLINE"><line class="cls-2" x1="89.8581" y1="63.827" x2="89.8581" y2="89.8414"/></g><g id="LINE-33" data-name="LINE"><line class="cls-2" x1="103.7479" y1="76.0984" x2="103.7479" y2="69.2129"/></g><g id="LINE-34" data-name="LINE"><line class="cls-2" x1="103.7479" y1="64.1105" x2="103.7479" y2="63.827"/></g><g id="LINE-35" data-name="LINE"><line class="cls-2" x1="104.3149" y1="76.0984" x2="104.3149" y2="69.1813"/></g><g id="LINE-36" data-name="LINE"><line class="cls-2" x1="104.3149" y1="64.1105" x2="104.3149" y2="63.827"/></g><g id="LINE-37" data-name="LINE"><line class="cls-2" x1="68.8817" y1="63.827" x2="111.9684" y2="63.827"/></g><g id="LINE-38" data-name="LINE"><line class="cls-2" x1="68.8817" y1="63.2601" x2="111.9684" y2="63.2601"/></g><g id="LWPOLYLINE-137" data-name="LWPOLYLINE"><line class="cls-2" x1="104.7635" y1="81.0769" x2="104.7635" y2="80.5099"/></g><g id="LINE-39" data-name="LINE"><line class="cls-2" x1="89.2912" y1="75.4491" x2="77.2048" y2="75.4491"/></g><g id="LINE-40" data-name="LINE"><line class="cls-2" x1="89.2912" y1="81.1184" x2="76.0867" y2="81.1184"/></g><g id="LINE-41" data-name="LINE"><line class="cls-2" x1="89.2912" y1="74.3152" x2="77.2048" y2="74.3152"/></g><g id="LINE-42" data-name="LINE"><line class="cls-2" x1="77.2048" y1="76.14" x2="77.2048" y2="69.2544"/></g><g id="LINE-43" data-name="LINE"><line class="cls-2" x1="77.2048" y1="64.152" x2="77.2048" y2="63.827"/></g><g id="LINE-44" data-name="LINE"><line class="cls-2" x1="76.6379" y1="76.14" x2="76.6379" y2="69.2544"/></g><g id="LINE-45" data-name="LINE"><line class="cls-2" x1="76.6379" y1="64.152" x2="76.6379" y2="63.827"/></g><g id="LWPOLYLINE-138" data-name="LWPOLYLINE"><line class="cls-2" x1="76.0867" y1="81.1184" x2="76.0867" y2="80.5515"/></g><g id="LWPOLYLINE-139" data-name="LWPOLYLINE"><rect class="cls-2" x="76.0867" y="89.8414" width="28.6768" height="1.1339"/></g><g id="LWPOLYLINE-140" data-name="LWPOLYLINE"><rect class="cls-2" x="109.8658" y="80.5099" width="2.1026" height="0.5669"/></g><g id="LWPOLYLINE-141" data-name="LWPOLYLINE"><rect class="cls-2" x="68.8817" y="80.5099" width="2.1026" height="0.6085"/></g><g id="LWPOLYLINE-142" data-name="LWPOLYLINE"><polyline class="cls-2" points="68.882 89.8 70.984 89.8 70.984 90.975 68.882 90.975"/></g><g id="LWPOLYLINE-143" data-name="LWPOLYLINE"><polyline class="cls-2" points="111.968 90.975 109.866 90.975 109.866 89.8 111.968 89.8"/></g><g id="LWPOLYLINE-144" data-name="LWPOLYLINE"><line class="cls-2" x1="111.9684" y1="62.5022" x2="113.1023" y2="62.5022"/></g><g id="LWPOLYLINE-145" data-name="LWPOLYLINE"><line class="cls-2" x1="111.9684" y1="57.3999" x2="113.1023" y2="57.3999"/></g><g id="LWPOLYLINE-146" data-name="LWPOLYLINE"><line class="cls-2" x1="108.5642" y1="56.457" x2="108.5642" y2="55.3231"/></g><g id="LWPOLYLINE-147" data-name="LWPOLYLINE"><line class="cls-2" x1="103.4619" y1="56.457" x2="103.4619" y2="55.3231"/></g><g id="LWPOLYLINE-148" data-name="LWPOLYLINE"><line class="cls-2" x1="86.4398" y1="56.457" x2="86.4398" y2="55.3231"/></g><g id="LWPOLYLINE-149" data-name="LWPOLYLINE"><line class="cls-2" x1="81.3375" y1="56.457" x2="81.3375" y2="55.3231"/></g><g id="LWPOLYLINE-150" data-name="LWPOLYLINE"><line class="cls-2" x1="76.6379" y1="64.152" x2="77.2048" y2="64.152"/></g><g id="LWPOLYLINE-151" data-name="LWPOLYLINE"><line class="cls-2" x1="77.2048" y1="69.2544" x2="76.6379" y2="69.2544"/></g><g id="LWPOLYLINE-152" data-name="LWPOLYLINE"><line class="cls-2" x1="76.6379" y1="76.14" x2="77.2048" y2="76.14"/></g><g id="LWPOLYLINE-153" data-name="LWPOLYLINE"><line class="cls-2" x1="77.2048" y1="80.1085" x2="76.6379" y2="80.1085"/></g><g id="LWPOLYLINE-154" data-name="LWPOLYLINE"><line class="cls-2" x1="103.7479" y1="76.0984" x2="104.3149" y2="76.0984"/></g><g id="LWPOLYLINE-155" data-name="LWPOLYLINE"><line class="cls-2" x1="104.3149" y1="80.0669" x2="103.7479" y2="80.0669"/></g><g id="LINE-46" data-name="LINE"><line class="cls-2" x1="264.4677" y1="55.3231" x2="272.9669" y2="55.3231"/></g><g id="LINE-47" data-name="LINE"><line class="cls-2" x1="274.1007" y1="55.3231" x2="280.344" y2="55.3231"/></g><g id="LINE-48" data-name="LINE"><line class="cls-2" x1="285.4464" y1="55.3231" x2="288.8505" y2="55.3231"/></g><g id="LINE-49" data-name="LINE"><line class="cls-2" x1="264.4677" y1="56.457" x2="280.344" y2="56.457"/></g><g id="LINE-50" data-name="LINE"><line class="cls-2" x1="285.4464" y1="56.457" x2="288.8505" y2="56.457"/></g><g id="LWPOLYLINE-156" data-name="LWPOLYLINE"><line class="cls-2" x1="288.8505" y1="30.6201" x2="288.8505" y2="55.3231"/></g><g id="LWPOLYLINE-157" data-name="LWPOLYLINE"><line class="cls-2" x1="288.8505" y1="56.457" x2="288.8505" y2="57.3999"/></g><g id="LWPOLYLINE-158" data-name="LWPOLYLINE"><line class="cls-2" x1="288.8505" y1="62.5022" x2="288.8505" y2="73.5416"/></g><g id="LWPOLYLINE-159" data-name="LWPOLYLINE"><line class="cls-2" x1="289.9844" y1="30.6201" x2="289.9844" y2="57.3999"/></g><g id="LWPOLYLINE-160" data-name="LWPOLYLINE"><line class="cls-2" x1="289.9844" y1="62.5022" x2="289.9844" y2="73.5416"/></g><g id="LWPOLYLINE-161" data-name="LWPOLYLINE"><line class="cls-2" x1="272.9669" y1="30.6201" x2="272.9669" y2="55.3231"/></g><g id="LWPOLYLINE-162" data-name="LWPOLYLINE"><line class="cls-2" x1="274.1007" y1="30.6201" x2="274.1007" y2="55.3231"/></g><g id="LINE-51" data-name="LINE"><line class="cls-2" x1="244.63" y1="57.3999" x2="244.63" y2="30.6201"/></g><g id="LINE-52" data-name="LINE"><line class="cls-2" x1="268.4411" y1="75.4491" x2="280.6301" y2="75.4491"/></g><g id="LINE-53" data-name="LINE"><line class="cls-2" x1="268.4411" y1="81.0769" x2="281.6456" y2="81.0769"/></g><g id="LINE-54" data-name="LINE"><line class="cls-2" x1="268.4411" y1="74.3152" x2="280.6301" y2="74.3152"/></g><g id="LWPOLYLINE-163" data-name="LWPOLYLINE"><line class="cls-2" x1="268.4411" y1="63.827" x2="268.4411" y2="89.8414"/></g><g id="LWPOLYLINE-164" data-name="LWPOLYLINE"><line class="cls-2" x1="267.8741" y1="63.827" x2="267.8741" y2="89.8414"/></g><g id="LWPOLYLINE-165" data-name="LWPOLYLINE"><line class="cls-2" x1="266.1734" y1="63.827" x2="266.1734" y2="89.8414"/></g><g id="LWPOLYLINE-166" data-name="LWPOLYLINE"><line class="cls-2" x1="266.7403" y1="63.827" x2="266.7403" y2="89.8414"/></g><g id="LINE-55" data-name="LINE"><line class="cls-2" x1="280.6301" y1="76.0984" x2="280.6301" y2="69.2129"/></g><g id="LINE-56" data-name="LINE"><line class="cls-2" x1="280.6301" y1="64.1105" x2="280.6301" y2="63.827"/></g><g id="LINE-57" data-name="LINE"><line class="cls-2" x1="281.197" y1="76.0984" x2="281.197" y2="69.1813"/></g><g id="LINE-58" data-name="LINE"><line class="cls-2" x1="281.197" y1="64.1105" x2="281.197" y2="63.827"/></g><g id="LINE-59" data-name="LINE"><line class="cls-2" x1="245.7639" y1="63.827" x2="288.8505" y2="63.827"/></g><g id="LINE-60" data-name="LINE"><line class="cls-2" x1="245.7639" y1="63.2601" x2="288.8505" y2="63.2601"/></g><g id="LWPOLYLINE-167" data-name="LWPOLYLINE"><line class="cls-2" x1="281.6456" y1="81.0769" x2="281.6456" y2="80.5099"/></g><g id="LINE-61" data-name="LINE"><line class="cls-2" x1="266.1734" y1="75.4491" x2="254.087" y2="75.4491"/></g><g id="LINE-62" data-name="LINE"><line class="cls-2" x1="266.1734" y1="81.1184" x2="252.9688" y2="81.1184"/></g><g id="LINE-63" data-name="LINE"><line class="cls-2" x1="266.1734" y1="74.3152" x2="254.087" y2="74.3152"/></g><g id="LINE-64" data-name="LINE"><line class="cls-2" x1="254.087" y1="76.14" x2="254.087" y2="69.2544"/></g><g id="LINE-65" data-name="LINE"><line class="cls-2" x1="254.087" y1="64.152" x2="254.087" y2="63.827"/></g><g id="LINE-66" data-name="LINE"><line class="cls-2" x1="253.52" y1="76.14" x2="253.52" y2="69.2544"/></g><g id="LINE-67" data-name="LINE"><line class="cls-2" x1="253.52" y1="64.152" x2="253.52" y2="63.827"/></g><g id="LWPOLYLINE-168" data-name="LWPOLYLINE"><line class="cls-2" x1="252.9688" y1="81.1184" x2="252.9688" y2="80.5515"/></g><g id="LWPOLYLINE-169" data-name="LWPOLYLINE"><rect class="cls-2" x="252.9688" y="89.8414" width="28.6768" height="1.1339"/></g><g id="LWPOLYLINE-170" data-name="LWPOLYLINE"><rect class="cls-2" x="286.748" y="80.5099" width="2.1026" height="0.5669"/></g><g id="LWPOLYLINE-171" data-name="LWPOLYLINE"><rect class="cls-2" x="245.7639" y="80.5099" width="2.1026" height="0.6085"/></g><g id="LWPOLYLINE-172" data-name="LWPOLYLINE"><polyline class="cls-2" points="245.764 89.8 247.866 89.8 247.866 90.975 245.764 90.975"/></g><g id="LWPOLYLINE-173" data-name="LWPOLYLINE"><polyline class="cls-2" points="288.851 90.975 286.748 90.975 286.748 89.8 288.851 89.8"/></g><g id="LWPOLYLINE-174" data-name="LWPOLYLINE"><line class="cls-2" x1="244.63" y1="62.5022" x2="245.7639" y2="62.5022"/></g><g id="LWPOLYLINE-175" data-name="LWPOLYLINE"><line class="cls-2" x1="244.63" y1="57.3999" x2="245.7639" y2="57.3999"/></g><g id="LWPOLYLINE-176" data-name="LWPOLYLINE"><line class="cls-2" x1="285.4464" y1="56.457" x2="285.4464" y2="55.3231"/></g><g id="LWPOLYLINE-177" data-name="LWPOLYLINE"><line class="cls-2" x1="280.344" y1="56.457" x2="280.344" y2="55.3231"/></g><g id="LWPOLYLINE-178" data-name="LWPOLYLINE"><line class="cls-2" x1="264.4677" y1="56.457" x2="264.4677" y2="55.3231"/></g><g id="LWPOLYLINE-179" data-name="LWPOLYLINE"><line class="cls-2" x1="254.263" y1="56.457" x2="254.263" y2="55.3231"/></g><g id="LWPOLYLINE-180" data-name="LWPOLYLINE"><line class="cls-2" x1="253.52" y1="64.152" x2="254.087" y2="64.152"/></g><g id="LWPOLYLINE-181" data-name="LWPOLYLINE"><line class="cls-2" x1="254.087" y1="69.2544" x2="253.52" y2="69.2544"/></g><g id="LWPOLYLINE-182" data-name="LWPOLYLINE"><line class="cls-2" x1="253.52" y1="76.14" x2="254.087" y2="76.14"/></g><g id="LWPOLYLINE-183" data-name="LWPOLYLINE"><line class="cls-2" x1="254.087" y1="80.1085" x2="253.52" y2="80.1085"/></g><g id="LWPOLYLINE-184" data-name="LWPOLYLINE"><line class="cls-2" x1="280.6301" y1="76.0984" x2="281.197" y2="76.0984"/></g><g id="LWPOLYLINE-185" data-name="LWPOLYLINE"><line class="cls-2" x1="281.197" y1="80.0669" x2="280.6301" y2="80.0669"/></g><g id="LWPOLYLINE-186" data-name="LWPOLYLINE"><line class="cls-2" x1="67.7479" y1="90.9753" x2="67.7479" y2="97.803"/></g><g id="LWPOLYLINE-187" data-name="LWPOLYLINE"><line class="cls-2" x1="68.8817" y1="90.9753" x2="68.8817" y2="97.6622"/></g><g id="LWPOLYLINE-188" data-name="LWPOLYLINE"><line class="cls-2" x1="113.1023" y1="90.9753" x2="113.1023" y2="112.8229"/></g><g id="LWPOLYLINE-189" data-name="LWPOLYLINE"><line class="cls-2" x1="111.9684" y1="90.9753" x2="111.9684" y2="110.6409"/></g><g id="LWPOLYLINE-190" data-name="LWPOLYLINE"><line class="cls-2" x1="289.9844" y1="76.1396" x2="289.9844" y2="97.803"/></g><g id="LWPOLYLINE-191" data-name="LWPOLYLINE"><line class="cls-2" x1="288.8506" y1="76.1396" x2="288.8506" y2="89.7999"/></g><g id="LWPOLYLINE-192" data-name="LWPOLYLINE"><line class="cls-2" x1="288.8506" y1="90.9753" x2="288.8506" y2="97.6622"/></g><g id="LWPOLYLINE-193" data-name="LWPOLYLINE"><line class="cls-2" x1="244.63" y1="90.9753" x2="244.63" y2="112.8229"/></g><g id="LWPOLYLINE-194" data-name="LWPOLYLINE"><line class="cls-2" x1="245.7639" y1="90.9753" x2="245.7639" y2="110.6409"/></g><g id="LWPOLYLINE-195" data-name="LWPOLYLINE"><line class="cls-2" x1="68.8817" y1="62.5022" x2="67.7479" y2="62.5022"/></g><g id="LWPOLYLINE-196" data-name="LWPOLYLINE"><line class="cls-2" x1="68.8817" y1="57.3999" x2="67.7479" y2="57.3999"/></g><g id="LWPOLYLINE-197" data-name="LWPOLYLINE"><line class="cls-2" x1="289.986" y1="62.5022" x2="288.8522" y2="62.5022"/></g><g id="LWPOLYLINE-198" data-name="LWPOLYLINE"><line class="cls-2" x1="289.9861" y1="57.3999" x2="288.8522" y2="57.3999"/></g><g id="LWPOLYLINE-199" data-name="LWPOLYLINE"><rect class="cls-2" x="30.8838" y="30.6201" width="295.9511" height="174.0475"/></g><g id="LWPOLYLINE-200" data-name="LWPOLYLINE"><rect class="cls-2" x="28.616" y="28.3524" width="300.4865" height="178.5829"/></g><g id="LWPOLYLINE-201" data-name="LWPOLYLINE"><polyline class="cls-2" points="68.882 30.62 68.882 55.323 81.337 55.323"/></g><g id="LWPOLYLINE-202" data-name="LWPOLYLINE"><polyline class="cls-2" points="68.882 57.4 68.882 56.457 81.337 56.457"/></g><g id="LWPOLYLINE-203" data-name="LWPOLYLINE"><polyline class="cls-2" points="68.882 89.8 68.882 64.211 68.882 62.502"/></g><g id="LWPOLYLINE-204" data-name="LWPOLYLINE"><polyline class="cls-2" points="67.748 90.975 67.748 64.211 67.748 62.502"/></g><g id="LWPOLYLINE-205" data-name="LWPOLYLINE"><polyline class="cls-2" points="91.559 80.51 103.748 80.51 103.748 80.067"/></g><g id="LWPOLYLINE-206" data-name="LWPOLYLINE"><polyline class="cls-2" points="104.315 80.067 104.315 80.51 104.763 80.51"/></g><g id="LWPOLYLINE-207" data-name="LWPOLYLINE"><polyline class="cls-2" points="89.291 80.551 77.205 80.551 77.205 80.108"/></g><g id="LWPOLYLINE-208" data-name="LWPOLYLINE"><polyline class="cls-2" points="76.638 80.108 76.638 80.551 76.087 80.551"/></g><g id="LWPOLYLINE-209" data-name="LWPOLYLINE"><polyline class="cls-2" points="245.764 30.62 245.764 55.323 254.263 55.323"/></g><g id="LWPOLYLINE-210" data-name="LWPOLYLINE"><polyline class="cls-2" points="245.764 57.4 245.764 56.457 254.263 56.457"/></g><g id="LWPOLYLINE-211" data-name="LWPOLYLINE"><polyline class="cls-2" points="245.764 89.8 245.764 64.211 245.764 62.502"/></g><g id="LWPOLYLINE-212" data-name="LWPOLYLINE"><polyline class="cls-2" points="244.63 90.975 244.63 64.211 244.63 62.502"/></g><g id="LWPOLYLINE-213" data-name="LWPOLYLINE"><polyline class="cls-2" points="268.441 80.51 280.63 80.51 280.63 80.067"/></g><g id="LWPOLYLINE-214" data-name="LWPOLYLINE"><polyline class="cls-2" points="281.197 80.067 281.197 80.51 281.646 80.51"/></g><g id="LWPOLYLINE-215" data-name="LWPOLYLINE"><polyline class="cls-2" points="266.173 80.551 254.087 80.551 254.087 80.108"/></g><g id="LWPOLYLINE-216" data-name="LWPOLYLINE"><polyline class="cls-2" points="253.52 80.108 253.52 80.551 252.969 80.551"/></g></g><g id="_.50_KOUPELNA" data-name=".50_KOUPELNA"><g id="LWPOLYLINE-217" data-name="LWPOLYLINE"><path class="cls-5" d="M94.5637,77.9588a1.09,1.09,0,0,1-.0265.24,1.0344,1.0344,0,0,1-.1147.2926,1.0462,1.0462,0,0,1-.4662.4241,1.0115,1.0115,0,0,1-.1663.06.9842.9842,0,0,1-.133.0254,1.006,1.006,0,0,1-.1344.0068q-.0795,0-.159,0-.0995,0-.1988,0-.3094-.0009-.619-.0043-.4069-.0045-.8138-.0133l-.1731-.0037V76.9313l.1731-.0037q.4069-.0087.8138-.0133.31-.0034.619-.0042.0995,0,.1988,0,.0795,0,.159,0a1.006,1.006,0,0,1,.1344.0068.9842.9842,0,0,1,.133.0254,1.0208,1.0208,0,0,1,.1663.06,1.0462,1.0462,0,0,1,.4662.4241,1.0344,1.0344,0,0,1,.1147.2926A1.09,1.09,0,0,1,94.5637,77.9588Z"/></g><g id="LWPOLYLINE-218" data-name="LWPOLYLINE"><path class="cls-5" d="M92.7658,77.9588v-.225a.0563.0563,0,0,1,.058-.0557h.1281a.8418.8418,0,0,1,.0912.005.5965.5965,0,0,1,.1147.0239.3715.3715,0,0,1,.11.0558.2283.2283,0,0,1,.0763.1.2764.2764,0,0,1,0,.1925.2278.2278,0,0,1-.0763.1.3692.3692,0,0,1-.11.0558.6044.6044,0,0,1-.1147.024.8678.8678,0,0,1-.0912.0049h-.1281a.0563.0563,0,0,1-.058-.0557v-.2249"/></g><g id="LWPOLYLINE-219" data-name="LWPOLYLINE"><path class="cls-5" d="M94.3746,77.9588a.9414.9414,0,0,1-.0138.159.8349.8349,0,0,1-.0372.14.8671.8671,0,0,1-.07.1471.8357.8357,0,0,1-.1047.1405.879.879,0,0,1-.145.126.8394.8394,0,0,1-.1695.0906.827.827,0,0,1-.1517.0437.7645.7645,0,0,1-.1392.0128q-.1038,0-.2075,0l-.0974,0a.6965.6965,0,0,1-.0924-.0065c-.06-.0082-.12-.0193-.1795-.0331a1.0148,1.0148,0,0,1-.154-.0493,1.2057,1.2057,0,0,1-.111-.0522.3773.3773,0,0,1-.086-.0629.357.357,0,0,1-.0564-.0714.5691.5691,0,0,1-.0562-.1266,1.13,1.13,0,0,1-.0329-.1392q-.0135-.0794-.02-.16t-.0057-.1585q0-.0795.0057-.1586t.02-.16a1.13,1.13,0,0,1,.0329-.1392.5691.5691,0,0,1,.0562-.1266.357.357,0,0,1,.0564-.0714.3773.3773,0,0,1,.086-.0629,1.2057,1.2057,0,0,1,.111-.0522,1.0148,1.0148,0,0,1,.154-.0493c.0592-.0138.1192-.0249.1795-.0331a.7138.7138,0,0,1,.0924-.0065l.0974,0q.1038,0,.2075,0a.7558.7558,0,0,1,.1392.0129.8189.8189,0,0,1,.1517.0436.8394.8394,0,0,1,.1695.0906.879.879,0,0,1,.145.126.84.84,0,0,1,.1047.1405.8671.8671,0,0,1,.07.1471.8349.8349,0,0,1,.0372.14A.9417.9417,0,0,1,94.3746,77.9588Z"/></g><g id="LINE-68" data-name="LINE"><line class="cls-5" x1="93.7594" y1="89.0523" x2="92.4152" y2="89.0523"/></g><g id="CIRCLE-31" data-name="CIRCLE"><path class="cls-5" d="M92.48,87.5239a.2126.2126,0,1,1,.2126.2125.2126.2126,0,0,1-.2126-.2125Z"/></g><g id="LINE-69" data-name="LINE"><line class="cls-5" x1="93.7877" y1="89.0239" x2="93.7877" y2="86.0279"/></g><g id="LINE-70" data-name="LINE"><line class="cls-5" x1="92.4152" y1="85.9996" x2="93.7594" y2="85.9996"/></g><g id="LINE-71" data-name="LINE"><line class="cls-5" x1="92.3868" y1="89.0239" x2="92.3868" y2="86.0279"/></g><g id="ARC-36" data-name="ARC"><path class="cls-5" d="M93.7594,89.0523a.0284.0284,0,0,0,.0283-.0284"/></g><g id="ARC-37" data-name="ARC"><path class="cls-5" d="M92.3868,89.0239a.0284.0284,0,0,0,.0284.0284"/></g><g id="ARC-38" data-name="ARC"><path class="cls-5" d="M92.4152,86a.0284.0284,0,0,0-.0284.0283"/></g><g id="ARC-39" data-name="ARC"><path class="cls-5" d="M93.7877,86.0279A.0283.0283,0,0,0,93.7594,86"/></g><g id="LWPOLYLINE-220" data-name="LWPOLYLINE"><circle class="cls-5" cx="92.6928" cy="87.5239" r="0.1304"/></g><g id="LWPOLYLINE-221" data-name="LWPOLYLINE"><path class="cls-5" d="M94.3936,81.1441a.0283.0283,0,0,0-.0284-.0283H91.5589v8.6426h2.8063a.0284.0284,0,0,0,.0284-.0284Z"/></g><g id="CIRCLE-32" data-name="CIRCLE"><path class="cls-5" d="M91.8566,87.5322a.0992.0992,0,1,1,.0992.0992.0992.0992,0,0,1-.0992-.0992Z"/></g><g id="LINE-72" data-name="LINE"><line class="cls-5" x1="93.7594" y1="81.8218" x2="92.4152" y2="81.8218"/></g><g id="CIRCLE-33" data-name="CIRCLE"><path class="cls-5" d="M92.48,83.35a.2126.2126,0,1,1,.2126.2126A.2126.2126,0,0,1,92.48,83.35Z"/></g><g id="LINE-73" data-name="LINE"><line class="cls-5" x1="93.7877" y1="81.8502" x2="93.7877" y2="84.8462"/></g><g id="LINE-74" data-name="LINE"><line class="cls-5" x1="92.4152" y1="84.8745" x2="93.7594" y2="84.8745"/></g><g id="LINE-75" data-name="LINE"><line class="cls-5" x1="92.3868" y1="81.8502" x2="92.3868" y2="84.8462"/></g><g id="ARC-40" data-name="ARC"><path class="cls-5" d="M93.7877,81.85a.0284.0284,0,0,0-.0283-.0284"/></g><g id="ARC-41" data-name="ARC"><path class="cls-5" d="M92.4152,81.8218a.0284.0284,0,0,0-.0284.0284"/></g><g id="ARC-42" data-name="ARC"><path class="cls-5" d="M92.3868,84.8462a.0284.0284,0,0,0,.0284.0283"/></g><g id="ARC-43" data-name="ARC"><path class="cls-5" d="M93.7594,84.8745a.0283.0283,0,0,0,.0283-.0283"/></g><g id="LWPOLYLINE-222" data-name="LWPOLYLINE"><circle class="cls-5" cx="92.6928" cy="83.3503" r="0.1304"/></g><g id="CIRCLE-34" data-name="CIRCLE"><path class="cls-5" d="M91.8566,83.3419a.0992.0992,0,1,1,.0992.0993.0992.0992,0,0,1-.0992-.0993Z"/></g><g id="LWPOLYLINE-223" data-name="LWPOLYLINE"><rect class="cls-5" x="110.1493" y="81.0769" width="1.8191" height="8.723"/></g><g id="LWPOLYLINE-224" data-name="LWPOLYLINE"><path class="cls-5" d="M94.5637,71.7641a1.09,1.09,0,0,0-.0265-.24,1.0344,1.0344,0,0,0-.1147-.2926,1.0462,1.0462,0,0,0-.4662-.4241,1.0208,1.0208,0,0,0-.1663-.06.9842.9842,0,0,0-.133-.0254,1.006,1.006,0,0,0-.1344-.0068q-.0795,0-.159,0-.0995,0-.1988,0-.3094.0007-.619.0042-.4069.0045-.8138.0133l-.1731.0037v2.0549l.1731.0037q.4069.0087.8138.0133.31.0035.619.0043.0995,0,.1988,0,.0795,0,.159,0a.9779.9779,0,0,0,.2674-.0322,1.0115,1.0115,0,0,0,.1663-.06,1.0462,1.0462,0,0,0,.4662-.4241,1.0344,1.0344,0,0,0,.1147-.2926A1.09,1.09,0,0,0,94.5637,71.7641Z"/></g><g id="LWPOLYLINE-225" data-name="LWPOLYLINE"><path class="cls-5" d="M92.7658,71.7641v.2249a.0557.0557,0,0,0,.0557.0557h.13a.8678.8678,0,0,0,.0912-.0049.5967.5967,0,0,0,.1147-.024.3692.3692,0,0,0,.11-.0558.2278.2278,0,0,0,.0763-.1.2764.2764,0,0,0,0-.1925.2283.2283,0,0,0-.0763-.1.3715.3715,0,0,0-.11-.0558.5965.5965,0,0,0-.1147-.0239.8418.8418,0,0,0-.0912-.005h-.1281a.0557.0557,0,0,0-.0579.0534v.2273"/></g><g id="LWPOLYLINE-226" data-name="LWPOLYLINE"><path class="cls-5" d="M94.3746,71.7641a.9426.9426,0,0,0-.0138-.1591.8349.8349,0,0,0-.0372-.14.8671.8671,0,0,0-.07-.1471.8349.8349,0,0,0-.1047-.14.88.88,0,0,0-.145-.1261.8394.8394,0,0,0-.1695-.0906.8189.8189,0,0,0-.1517-.0436.7558.7558,0,0,0-.1392-.0129h-.2075l-.0974,0a.7138.7138,0,0,0-.0924.0065c-.06.0082-.12.0193-.1795.0332a1.0144,1.0144,0,0,0-.154.0492,1.2057,1.2057,0,0,0-.111.0522.3747.3747,0,0,0-.086.063.3536.3536,0,0,0-.0564.0713.5691.5691,0,0,0-.0562.1266,1.13,1.13,0,0,0-.0329.1392q-.0135.0793-.02.16t-.0057.1586q0,.0793.0057.1586t.02.16a1.1215,1.1215,0,0,0,.0329.1392.567.567,0,0,0,.0562.1266.357.357,0,0,0,.0564.0714.3773.3773,0,0,0,.086.0629,1.2057,1.2057,0,0,0,.111.0522,1.0148,1.0148,0,0,0,.154.0493c.0592.0139.1192.0249.1795.0331a.6965.6965,0,0,0,.0924.0065l.0974,0q.1038,0,.2075,0a.7645.7645,0,0,0,.1392-.0128.827.827,0,0,0,.1517-.0437.8394.8394,0,0,0,.1695-.0906.879.879,0,0,0,.145-.126.8357.8357,0,0,0,.1047-.1405.8671.8671,0,0,0,.07-.1471.8349.8349,0,0,0,.0372-.14A.9414.9414,0,0,0,94.3746,71.7641Z"/></g><g id="LWPOLYLINE-227" data-name="LWPOLYLINE"><rect class="cls-5" x="91.5589" y="63.9676" width="1.491" height="0.6576"/></g><g id="ELLIPSE"><path class="cls-5" d="M101.108,72.9682c0-.31-.3369-.5609-.753-.5611s-.7534.2506-.7536.56.337.5609.753.5611.7534-.2506.7536-.56Z"/></g><g id="ELLIPSE-2" data-name="ELLIPSE"><path class="cls-5" d="M101.2847,72.9683c0-.3814-.4194-.6909-.9373-.6911s-.9379.3086-.9381.69c0,.0042,0,.0084,0,.0126"/></g><g id="LWPOLYLINE-228" data-name="LWPOLYLINE"><polyline class="cls-5" points="101.285 72.968 101.284 74.315 99.409 74.315 99.409 72.98"/></g><g id="LINE-76" data-name="LINE"><line class="cls-5" x1="101.2842" y1="73.8695" x2="99.4089" y2="73.8684"/></g><g id="LWPOLYLINE-229" data-name="LWPOLYLINE"><path class="cls-5" d="M86.2865,78a1.0907,1.0907,0,0,0,.0264.24,1.0444,1.0444,0,0,0,.5809.7166,1.0056,1.0056,0,0,0,.1663.06.9689.9689,0,0,0,.133.0254.99.99,0,0,0,.1345.0068h.159q.0993,0,.1987,0,.31-.0008.619-.0043.4069-.0045.8138-.0133l.1731-.0037V76.9729l-.1731-.0038q-.4068-.0087-.8138-.0133-.3094-.0034-.619-.0042-.0993,0-.1987,0h-.159a1.0065,1.0065,0,0,0-.1345.0067.9842.9842,0,0,0-.133.0254,1.0152,1.0152,0,0,0-.1663.06,1.0407,1.0407,0,0,0-.5809.7166A1.0907,1.0907,0,0,0,86.2865,78Z"/></g><g id="LWPOLYLINE-230" data-name="LWPOLYLINE"><path class="cls-5" d="M88.0843,78v-.225a.0557.0557,0,0,0-.0557-.0557h-.13a.8435.8435,0,0,0-.0913.0049.6.6,0,0,0-.1147.0239.3734.3734,0,0,0-.11.0558.2282.2282,0,0,0-.0763.1.2767.2767,0,0,0,0,.1926.2273.2273,0,0,0,.0763.1.3686.3686,0,0,0,.11.0558.5924.5924,0,0,0,.1147.024.8435.8435,0,0,0,.0913.0049h.128a.0557.0557,0,0,0,.058-.0534V78"/></g><g id="LWPOLYLINE-231" data-name="LWPOLYLINE"><path class="cls-5" d="M86.4755,78a.9312.9312,0,0,0,.0139.159.8173.8173,0,0,0,.0372.14.8631.8631,0,0,0,.07.1471.833.833,0,0,0,.1046.14.88.88,0,0,0,.1451.1261.831.831,0,0,0,.3212.1342.7717.7717,0,0,0,.1391.0129h.2076l.0973,0a.7164.7164,0,0,0,.0925-.0064q.09-.0124.1795-.0332a1.0245,1.0245,0,0,0,.1539-.0492q.0568-.0234.111-.0522a.3726.3726,0,0,0,.086-.063.3534.3534,0,0,0,.0564-.0714.5628.5628,0,0,0,.0563-.1266,1.1215,1.1215,0,0,0,.0329-.1392q.0135-.0794.02-.16T88.4048,78q0-.0793-.0058-.1586t-.02-.16a1.1273,1.1273,0,0,0-.0329-.1393.5669.5669,0,0,0-.0563-.1266.3528.3528,0,0,0-.0564-.0713.3726.3726,0,0,0-.086-.063q-.0542-.0288-.111-.0522a1.0132,1.0132,0,0,0-.1539-.0492q-.0889-.0209-.1795-.0332a.7164.7164,0,0,0-.0925-.0064l-.0973,0h-.2076a.754.754,0,0,0-.1391.0129.8222.8222,0,0,0-.1517.0436.8367.8367,0,0,0-.1695.0906.88.88,0,0,0-.1451.1261.833.833,0,0,0-.1046.14.8631.8631,0,0,0-.07.1471.8173.8173,0,0,0-.0372.14A.9312.9312,0,0,0,86.4755,78Z"/></g><g id="LINE-77" data-name="LINE"><line class="cls-5" x1="87.0908" y1="89.0938" x2="88.435" y2="89.0938"/></g><g id="CIRCLE-35" data-name="CIRCLE"><path class="cls-5" d="M87.9448,87.5654a.2126.2126,0,1,1,.2126.2126.2126.2126,0,0,1-.2126-.2126Z"/></g><g id="LINE-78" data-name="LINE"><line class="cls-5" x1="87.0624" y1="89.0655" x2="87.0624" y2="86.0695"/></g><g id="LINE-79" data-name="LINE"><line class="cls-5" x1="88.435" y1="86.0411" x2="87.0908" y2="86.0411"/></g><g id="LINE-80" data-name="LINE"><line class="cls-5" x1="88.4633" y1="89.0655" x2="88.4633" y2="86.0695"/></g><g id="ARC-44" data-name="ARC"><path class="cls-5" d="M87.0624,89.0655a.0284.0284,0,0,0,.0284.0283"/></g><g id="ARC-45" data-name="ARC"><path class="cls-5" d="M88.435,89.0938a.0283.0283,0,0,0,.0283-.0283"/></g><g id="ARC-46" data-name="ARC"><path class="cls-5" d="M88.4633,86.07a.0284.0284,0,0,0-.0283-.0284"/></g><g id="ARC-47" data-name="ARC"><path class="cls-5" d="M87.0908,86.0411a.0284.0284,0,0,0-.0284.0284"/></g><g id="LWPOLYLINE-232" data-name="LWPOLYLINE"><circle class="cls-5" cx="88.1574" cy="87.5654" r="0.1304"/></g><g id="LWPOLYLINE-233" data-name="LWPOLYLINE"><path class="cls-5" d="M86.4566,81.1856a.0283.0283,0,0,1,.0283-.0283h2.8063V89.8H86.4849a.0283.0283,0,0,1-.0283-.0283Z"/></g><g id="CIRCLE-36" data-name="CIRCLE"><path class="cls-5" d="M88.7952,87.5737a.0992.0992,0,1,1,.0992.0992.0992.0992,0,0,1-.0992-.0992Z"/></g><g id="LINE-81" data-name="LINE"><line class="cls-5" x1="87.0908" y1="81.8634" x2="88.435" y2="81.8634"/></g><g id="CIRCLE-37" data-name="CIRCLE"><path class="cls-5" d="M87.9448,83.3918a.2126.2126,0,1,1,.2126.2126.2126.2126,0,0,1-.2126-.2126Z"/></g><g id="LINE-82" data-name="LINE"><line class="cls-5" x1="87.0624" y1="81.8917" x2="87.0624" y2="84.8877"/></g><g id="LINE-83" data-name="LINE"><line class="cls-5" x1="88.435" y1="84.9161" x2="87.0908" y2="84.9161"/></g><g id="LINE-84" data-name="LINE"><line class="cls-5" x1="88.4633" y1="81.8917" x2="88.4633" y2="84.8877"/></g><g id="ARC-48" data-name="ARC"><path class="cls-5" d="M87.0908,81.8634a.0284.0284,0,0,0-.0284.0283"/></g><g id="ARC-49" data-name="ARC"><path class="cls-5" d="M88.4633,81.8917a.0283.0283,0,0,0-.0283-.0283"/></g><g id="ARC-50" data-name="ARC"><path class="cls-5" d="M88.435,84.9161a.0284.0284,0,0,0,.0283-.0284"/></g><g id="ARC-51" data-name="ARC"><path class="cls-5" d="M87.0624,84.8877a.0284.0284,0,0,0,.0284.0284"/></g><g id="LWPOLYLINE-234" data-name="LWPOLYLINE"><circle class="cls-5" cx="88.1574" cy="83.3918" r="0.1304"/></g><g id="CIRCLE-38" data-name="CIRCLE"><path class="cls-5" d="M88.7952,83.3835a.0992.0992,0,1,1,.0992.0992.0992.0992,0,0,1-.0992-.0992Z"/></g><g id="LWPOLYLINE-235" data-name="LWPOLYLINE"><path class="cls-5" d="M86.2865,71.7641a1.09,1.09,0,0,1,.0264-.24,1.0381,1.0381,0,0,1,.3416-.5638,1.05,1.05,0,0,1,.2393-.1529,1.0241,1.0241,0,0,1,.1663-.06.9842.9842,0,0,1,.133-.0254,1.0066,1.0066,0,0,1,.1345-.0068q.0795,0,.159,0,.0993,0,.1987,0,.31.0007.619.0042.4069.0045.8138.0133l.1731.0037v2.0549l-.1731.0037q-.4068.0087-.8138.0133-.3094.0035-.619.0043-.0993,0-.1987,0-.0795,0-.159,0a.978.978,0,0,1-.2675-.0322,1.0148,1.0148,0,0,1-.1663-.06,1.0476,1.0476,0,0,1-.4662-.4241,1.0374,1.0374,0,0,1-.1147-.2926A1.09,1.09,0,0,1,86.2865,71.7641Z"/></g><g id="LWPOLYLINE-236" data-name="LWPOLYLINE"><path class="cls-5" d="M88.0843,71.7641v.2249a.0562.0562,0,0,1-.058.0557h-.128a.87.87,0,0,1-.0913-.0049.6.6,0,0,1-.1147-.024.3686.3686,0,0,1-.11-.0558.227.227,0,0,1-.0763-.1.2764.2764,0,0,1,0-.1925.2276.2276,0,0,1,.0763-.1.371.371,0,0,1,.11-.0558.6.6,0,0,1,.1147-.0239.8436.8436,0,0,1,.0913-.005h.128a.0562.0562,0,0,1,.058.0557v.225"/></g><g id="LWPOLYLINE-237" data-name="LWPOLYLINE"><path class="cls-5" d="M86.4755,71.7641a.9324.9324,0,0,1,.0139-.1591.8162.8162,0,0,1,.0372-.14.86.86,0,0,1,.07-.1471.829.829,0,0,1,.1046-.14.88.88,0,0,1,.1451-.1261.8367.8367,0,0,1,.1695-.0906.8145.8145,0,0,1,.1517-.0436.754.754,0,0,1,.1391-.0129h.2076l.0973,0a.7165.7165,0,0,1,.0925.0065q.09.0123.1795.0332a1.0132,1.0132,0,0,1,.1539.0492,1.1936,1.1936,0,0,1,.111.0522.3726.3726,0,0,1,.086.063.35.35,0,0,1,.0564.0713.5648.5648,0,0,1,.0563.1266,1.13,1.13,0,0,1,.0329.1392q.0135.0793.02.16t.0058.1586q0,.0793-.0058.1586t-.02.16a1.1215,1.1215,0,0,1-.0329.1392.5628.5628,0,0,1-.0563.1266.3534.3534,0,0,1-.0564.0714.3751.3751,0,0,1-.086.0629,1.1936,1.1936,0,0,1-.111.0522,1.0136,1.0136,0,0,1-.1539.0493q-.0889.0208-.1795.0331a.6992.6992,0,0,1-.0925.0065l-.0973,0q-.1038,0-.2076,0a.7626.7626,0,0,1-.1391-.0128.8225.8225,0,0,1-.1517-.0437.8367.8367,0,0,1-.1695-.0906.88.88,0,0,1-.1451-.126.83.83,0,0,1-.1046-.1405.86.86,0,0,1-.07-.1471.8162.8162,0,0,1-.0372-.14A.9312.9312,0,0,1,86.4755,71.7641Z"/></g><g id="LWPOLYLINE-238" data-name="LWPOLYLINE"><rect class="cls-5" x="87.8002" y="63.9676" width="1.491" height="0.6576"/></g><g id="ELLIPSE-3" data-name="ELLIPSE"><path class="cls-5" d="M79.8447,72.9682c0-.31.337-.5609.753-.5611s.7534.2506.7536.56-.3369.5609-.753.5611-.7534-.2506-.7536-.56Z"/></g><g id="ELLIPSE-4" data-name="ELLIPSE"><path class="cls-5" d="M79.668,72.9683c0-.0042,0-.0084,0-.0126.0092-.3813.4364-.6851.9542-.6784s.93.3211.9209.7025"/></g><g id="LWPOLYLINE-239" data-name="LWPOLYLINE"><polyline class="cls-5" points="79.668 72.968 79.669 74.315 81.544 74.315 81.543 72.98"/></g><g id="LINE-85" data-name="LINE"><line class="cls-5" x1="79.6685" y1="73.8695" x2="81.5438" y2="73.8684"/></g><g id="LWPOLYLINE-240" data-name="LWPOLYLINE"><rect class="cls-5" x="68.8817" y="81.1184" width="1.8191" height="8.6815"/></g><g id="LWPOLYLINE-241" data-name="LWPOLYLINE"><path class="cls-5" d="M271.4458,77.9588a1.09,1.09,0,0,1-.0264.24,1.0381,1.0381,0,0,1-.3416.5638,1.0486,1.0486,0,0,1-.2394.1529,1.01,1.01,0,0,1-.1662.06.9872.9872,0,0,1-.133.0254,1.0075,1.0075,0,0,1-.1345.0068q-.0795,0-.159,0-.0993,0-.1987,0-.31-.0009-.619-.0043-.4069-.0045-.8138-.0133l-.1731-.0037V76.9313l.1731-.0037q.4068-.0087.8138-.0133.3094-.0034.619-.0042.0993,0,.1987,0,.0795,0,.159,0a1.0075,1.0075,0,0,1,.1345.0068.9872.9872,0,0,1,.133.0254,1.02,1.02,0,0,1,.1662.06,1.0471,1.0471,0,0,1,.4663.4241,1.0374,1.0374,0,0,1,.1147.2926A1.09,1.09,0,0,1,271.4458,77.9588Z"/></g><g id="LWPOLYLINE-242" data-name="LWPOLYLINE"><path class="cls-5" d="M269.648,77.9588v-.225a.0562.0562,0,0,1,.058-.0557h.128a.8436.8436,0,0,1,.0913.005.6.6,0,0,1,.1147.0239.371.371,0,0,1,.11.0558.2276.2276,0,0,1,.0763.1.2764.2764,0,0,1,0,.1925.227.227,0,0,1-.0763.1.3686.3686,0,0,1-.11.0558.6077.6077,0,0,1-.1147.024.87.87,0,0,1-.0913.0049h-.128a.0562.0562,0,0,1-.058-.0557v-.2249"/></g><g id="LWPOLYLINE-243" data-name="LWPOLYLINE"><path class="cls-5" d="M271.2568,77.9588a.9415.9415,0,0,1-.0139.159.8255.8255,0,0,1-.0372.14.8671.8671,0,0,1-.07.1471.825.825,0,0,1-.1047.1405.8749.8749,0,0,1-.145.126.8367.8367,0,0,1-.17.0906.8225.8225,0,0,1-.1517.0437.7634.7634,0,0,1-.1391.0128q-.1038,0-.2076,0l-.0973,0a.698.698,0,0,1-.0925-.0065q-.09-.0123-.1795-.0331a1.0136,1.0136,0,0,1-.1539-.0493,1.2075,1.2075,0,0,1-.1111-.0522.38.38,0,0,1-.086-.0629.3565.3565,0,0,1-.0563-.0714.5648.5648,0,0,1-.0563-.1266,1.13,1.13,0,0,1-.0329-.1392q-.0135-.0794-.0195-.16t-.0058-.1585q0-.0795.0058-.1586t.0195-.16a1.13,1.13,0,0,1,.0329-.1392.5648.5648,0,0,1,.0563-.1266.3565.3565,0,0,1,.0563-.0714.38.38,0,0,1,.086-.0629,1.2075,1.2075,0,0,1,.1111-.0522,1.0136,1.0136,0,0,1,.1539-.0493q.0889-.0207.1795-.0331a.7153.7153,0,0,1,.0925-.0065l.0973,0q.1038,0,.2076,0a.7548.7548,0,0,1,.1391.0129.8145.8145,0,0,1,.1517.0436.8367.8367,0,0,1,.17.0906.8749.8749,0,0,1,.145.126.829.829,0,0,1,.1047.1405.8671.8671,0,0,1,.07.1471.8255.8255,0,0,1,.0372.14A.9417.9417,0,0,1,271.2568,77.9588Z"/></g><g id="LINE-86" data-name="LINE"><line class="cls-5" x1="270.6415" y1="89.0523" x2="269.2973" y2="89.0523"/></g><g id="CIRCLE-39" data-name="CIRCLE"><path class="cls-5" d="M269.3623,87.5239a.2126.2126,0,1,1,.2126.2125.2126.2126,0,0,1-.2126-.2125Z"/></g><g id="LINE-87" data-name="LINE"><line class="cls-5" x1="270.6698" y1="89.0239" x2="270.6698" y2="86.0279"/></g><g id="LINE-88" data-name="LINE"><line class="cls-5" x1="269.2973" y1="85.9996" x2="270.6415" y2="85.9996"/></g><g id="LINE-89" data-name="LINE"><line class="cls-5" x1="269.269" y1="89.0239" x2="269.269" y2="86.0279"/></g><g id="ARC-52" data-name="ARC"><path class="cls-5" d="M270.6415,89.0523a.0284.0284,0,0,0,.0283-.0284"/></g><g id="ARC-53" data-name="ARC"><path class="cls-5" d="M269.269,89.0239a.0283.0283,0,0,0,.0283.0284"/></g><g id="ARC-54" data-name="ARC"><path class="cls-5" d="M269.2973,86a.0283.0283,0,0,0-.0283.0283"/></g><g id="ARC-55" data-name="ARC"><path class="cls-5" d="M270.67,86.0279A.0283.0283,0,0,0,270.6415,86"/></g><g id="LWPOLYLINE-244" data-name="LWPOLYLINE"><circle class="cls-5" cx="269.5749" cy="87.5239" r="0.1304"/></g><g id="LWPOLYLINE-245" data-name="LWPOLYLINE"><path class="cls-5" d="M271.2757,81.1441a.0283.0283,0,0,0-.0283-.0283h-2.8063v8.6426h2.8063a.0284.0284,0,0,0,.0283-.0284Z"/></g><g id="CIRCLE-40" data-name="CIRCLE"><path class="cls-5" d="M268.7387,87.5322a.0992.0992,0,1,1,.0992.0992.0992.0992,0,0,1-.0992-.0992Z"/></g><g id="LINE-90" data-name="LINE"><line class="cls-5" x1="270.6415" y1="81.8218" x2="269.2973" y2="81.8218"/></g><g id="CIRCLE-41" data-name="CIRCLE"><path class="cls-5" d="M269.3623,83.35a.2126.2126,0,1,1,.2126.2126.2126.2126,0,0,1-.2126-.2126Z"/></g><g id="LINE-91" data-name="LINE"><line class="cls-5" x1="270.6698" y1="81.8502" x2="270.6698" y2="84.8462"/></g><g id="LINE-92" data-name="LINE"><line class="cls-5" x1="269.2973" y1="84.8745" x2="270.6415" y2="84.8745"/></g><g id="LINE-93" data-name="LINE"><line class="cls-5" x1="269.269" y1="81.8502" x2="269.269" y2="84.8462"/></g><g id="ARC-56" data-name="ARC"><path class="cls-5" d="M270.67,81.85a.0284.0284,0,0,0-.0283-.0284"/></g><g id="ARC-57" data-name="ARC"><path class="cls-5" d="M269.2973,81.8218a.0283.0283,0,0,0-.0283.0284"/></g><g id="ARC-58" data-name="ARC"><path class="cls-5" d="M269.269,84.8462a.0283.0283,0,0,0,.0283.0283"/></g><g id="ARC-59" data-name="ARC"><path class="cls-5" d="M270.6415,84.8745a.0283.0283,0,0,0,.0283-.0283"/></g><g id="LWPOLYLINE-246" data-name="LWPOLYLINE"><circle class="cls-5" cx="269.5749" cy="83.3503" r="0.1304"/></g><g id="CIRCLE-42" data-name="CIRCLE"><path class="cls-5" d="M268.7387,83.3419a.0992.0992,0,1,1,.0992.0993.0992.0992,0,0,1-.0992-.0993Z"/></g><g id="LWPOLYLINE-247" data-name="LWPOLYLINE"><rect class="cls-5" x="287.0314" y="81.0769" width="1.8191" height="8.723"/></g><g id="LWPOLYLINE-248" data-name="LWPOLYLINE"><path class="cls-5" d="M271.4458,71.7641a1.09,1.09,0,0,0-.0264-.24,1.0381,1.0381,0,0,0-.3416-.5638,1.0486,1.0486,0,0,0-.2394-.1529,1.02,1.02,0,0,0-.1662-.06.9872.9872,0,0,0-.133-.0254,1.0075,1.0075,0,0,0-.1345-.0068q-.0795,0-.159,0-.0993,0-.1987,0-.31.0007-.619.0042-.4069.0045-.8138.0133l-.1731.0037v2.0549l.1731.0037q.4068.0087.8138.0133.3094.0035.619.0043.0993,0,.1987,0,.0795,0,.159,0a.978.978,0,0,0,.2675-.0322,1.01,1.01,0,0,0,.1662-.06,1.0471,1.0471,0,0,0,.4663-.4241,1.0374,1.0374,0,0,0,.1147-.2926A1.09,1.09,0,0,0,271.4458,71.7641Z"/></g><g id="LWPOLYLINE-249" data-name="LWPOLYLINE"><path class="cls-5" d="M269.648,71.7641v.2249a.0557.0557,0,0,0,.0557.0557h.13a.87.87,0,0,0,.0913-.0049.6.6,0,0,0,.1147-.024.3686.3686,0,0,0,.11-.0558.227.227,0,0,0,.0763-.1.2764.2764,0,0,0,0-.1925.2276.2276,0,0,0-.0763-.1.371.371,0,0,0-.11-.0558.6.6,0,0,0-.1147-.0239.8436.8436,0,0,0-.0913-.005h-.128a.0558.0558,0,0,0-.058.0534v.2273"/></g><g id="LWPOLYLINE-250" data-name="LWPOLYLINE"><path class="cls-5" d="M271.2568,71.7641a.9427.9427,0,0,0-.0139-.1591.8255.8255,0,0,0-.0372-.14.8671.8671,0,0,0-.07-.1471.8242.8242,0,0,0-.1047-.14.8755.8755,0,0,0-.145-.1261.8367.8367,0,0,0-.17-.0906.8145.8145,0,0,0-.1517-.0436.7548.7548,0,0,0-.1391-.0129h-.2076l-.0973,0a.7153.7153,0,0,0-.0925.0065q-.09.0123-.1795.0332a1.0132,1.0132,0,0,0-.1539.0492,1.2075,1.2075,0,0,0-.1111.0522.3769.3769,0,0,0-.086.063.3531.3531,0,0,0-.0563.0713.5648.5648,0,0,0-.0563.1266,1.13,1.13,0,0,0-.0329.1392q-.0135.0793-.0195.16t-.0058.1586q0,.0793.0058.1586t.0195.16a1.1215,1.1215,0,0,0,.0329.1392.5628.5628,0,0,0,.0563.1266.3565.3565,0,0,0,.0563.0714.38.38,0,0,0,.086.0629,1.2075,1.2075,0,0,0,.1111.0522,1.0136,1.0136,0,0,0,.1539.0493q.0889.0208.1795.0331a.698.698,0,0,0,.0925.0065l.0973,0q.1038,0,.2076,0a.7634.7634,0,0,0,.1391-.0128.8225.8225,0,0,0,.1517-.0437.8367.8367,0,0,0,.17-.0906.8749.8749,0,0,0,.145-.126.825.825,0,0,0,.1047-.1405.8671.8671,0,0,0,.07-.1471.8255.8255,0,0,0,.0372-.14A.9415.9415,0,0,0,271.2568,71.7641Z"/></g><g id="LWPOLYLINE-251" data-name="LWPOLYLINE"><rect class="cls-5" x="268.4411" y="63.9676" width="1.491" height="0.6576"/></g><g id="ELLIPSE-5" data-name="ELLIPSE"><path class="cls-5" d="M277.99,72.9682c0-.31-.3369-.5609-.7529-.5611s-.7535.2506-.7536.56.3369.5609.7529.5611.7535-.2506.7536-.56Z"/></g><g id="ELLIPSE-6" data-name="ELLIPSE"><path class="cls-5" d="M278.1669,72.9683c0-.3814-.4195-.6909-.9374-.6911s-.9379.3086-.9381.69c0,.0042,0,.0084,0,.0126"/></g><g id="LWPOLYLINE-252" data-name="LWPOLYLINE"><polyline class="cls-5" points="278.167 72.968 278.166 74.315 276.291 74.315 276.292 72.98"/></g><g id="LINE-94" data-name="LINE"><line class="cls-5" x1="278.1664" y1="73.8695" x2="276.2911" y2="73.8684"/></g><g id="LWPOLYLINE-253" data-name="LWPOLYLINE"><path class="cls-5" d="M263.1686,78a1.0967,1.0967,0,0,0,.0264.24,1.0441,1.0441,0,0,0,.581.7166,1.0024,1.0024,0,0,0,.1663.06.9675.9675,0,0,0,.1329.0254.9918.9918,0,0,0,.1345.0068h.159q.0995,0,.1988,0,.3094-.0008.619-.0043.4068-.0045.8138-.0133l.1731-.0037V76.9729L266,76.9691q-.4069-.0087-.8138-.0133-.31-.0034-.619-.0042-.0995,0-.1988,0h-.159a1.0082,1.0082,0,0,0-.1345.0067.9828.9828,0,0,0-.1329.0254,1.0119,1.0119,0,0,0-.1663.06,1.0414,1.0414,0,0,0-.581.7166A1.0967,1.0967,0,0,0,263.1686,78Z"/></g><g id="LWPOLYLINE-254" data-name="LWPOLYLINE"><path class="cls-5" d="M264.9665,78v-.225a.0558.0558,0,0,0-.0558-.0557h-.13a.8417.8417,0,0,0-.0912.0049.5991.5991,0,0,0-.1148.0239.3734.3734,0,0,0-.11.0558.2289.2289,0,0,0-.0763.1.2767.2767,0,0,0,0,.1926.2281.2281,0,0,0,.0763.1.3686.3686,0,0,0,.11.0558.5918.5918,0,0,0,.1148.024.8417.8417,0,0,0,.0912.0049h.1281a.0556.0556,0,0,0,.0579-.0534V78"/></g><g id="LWPOLYLINE-255" data-name="LWPOLYLINE"><path class="cls-5" d="M263.3577,78a.9311.9311,0,0,0,.0138.159.8266.8266,0,0,0,.0372.14.8707.8707,0,0,0,.07.1471.839.839,0,0,0,.1047.14.88.88,0,0,0,.145.1261.831.831,0,0,0,.3212.1342.7736.7736,0,0,0,.1392.0129h.2075l.0974,0a.7137.7137,0,0,0,.0924-.0064q.09-.0124.18-.0332a1.0257,1.0257,0,0,0,.154-.0492c.0378-.0156.0749-.033.111-.0522a.3769.3769,0,0,0,.086-.063.3606.3606,0,0,0,.0564-.0714.567.567,0,0,0,.0562-.1266,1.1215,1.1215,0,0,0,.0329-.1392q.0135-.0794.02-.16T265.2869,78q0-.0793-.0057-.1586t-.02-.16a1.1273,1.1273,0,0,0-.0329-.1393.5711.5711,0,0,0-.0562-.1266.36.36,0,0,0-.0564-.0713.3769.3769,0,0,0-.086-.063c-.0361-.0192-.0732-.0366-.111-.0522a1.0144,1.0144,0,0,0-.154-.0492q-.089-.0209-.18-.0332a.7137.7137,0,0,0-.0924-.0064l-.0974,0h-.2075a.7558.7558,0,0,0-.1392.0129.8245.8245,0,0,0-.1517.0436.8394.8394,0,0,0-.17.0906.88.88,0,0,0-.145.1261.839.839,0,0,0-.1047.14.8707.8707,0,0,0-.07.1471.8266.8266,0,0,0-.0372.14A.9311.9311,0,0,0,263.3577,78Z"/></g><g id="LINE-95" data-name="LINE"><line class="cls-5" x1="263.9729" y1="89.0938" x2="265.3171" y2="89.0938"/></g><g id="CIRCLE-43" data-name="CIRCLE"><path class="cls-5" d="M264.8269,87.5654a.2126.2126,0,1,1,.2126.2126.2126.2126,0,0,1-.2126-.2126Z"/></g><g id="LINE-96" data-name="LINE"><line class="cls-5" x1="263.9446" y1="89.0655" x2="263.9446" y2="86.0695"/></g><g id="LINE-97" data-name="LINE"><line class="cls-5" x1="265.3171" y1="86.0411" x2="263.9729" y2="86.0411"/></g><g id="LINE-98" data-name="LINE"><line class="cls-5" x1="265.3455" y1="89.0655" x2="265.3455" y2="86.0695"/></g><g id="ARC-60" data-name="ARC"><path class="cls-5" d="M263.9446,89.0655a.0283.0283,0,0,0,.0283.0283"/></g><g id="ARC-61" data-name="ARC"><path class="cls-5" d="M265.3171,89.0938a.0284.0284,0,0,0,.0284-.0283"/></g><g id="ARC-62" data-name="ARC"><path class="cls-5" d="M265.3455,86.07a.0284.0284,0,0,0-.0284-.0284"/></g><g id="ARC-63" data-name="ARC"><path class="cls-5" d="M263.9729,86.0411a.0284.0284,0,0,0-.0283.0284"/></g><g id="LWPOLYLINE-256" data-name="LWPOLYLINE"><circle class="cls-5" cx="265.0395" cy="87.5654" r="0.1304"/></g><g id="LWPOLYLINE-257" data-name="LWPOLYLINE"><path class="cls-5" d="M263.3387,81.1856a.0283.0283,0,0,1,.0283-.0283h2.8064V89.8H263.367a.0283.0283,0,0,1-.0283-.0283Z"/></g><g id="CIRCLE-44" data-name="CIRCLE"><path class="cls-5" d="M265.6773,87.5737a.0992.0992,0,1,1,.0992.0992.0992.0992,0,0,1-.0992-.0992Z"/></g><g id="LINE-99" data-name="LINE"><line class="cls-5" x1="263.9729" y1="81.8634" x2="265.3171" y2="81.8634"/></g><g id="CIRCLE-45" data-name="CIRCLE"><path class="cls-5" d="M264.8269,83.3918a.2126.2126,0,1,1,.2126.2126.2126.2126,0,0,1-.2126-.2126Z"/></g><g id="LINE-100" data-name="LINE"><line class="cls-5" x1="263.9446" y1="81.8917" x2="263.9446" y2="84.8877"/></g><g id="LINE-101" data-name="LINE"><line class="cls-5" x1="265.3171" y1="84.9161" x2="263.9729" y2="84.9161"/></g><g id="LINE-102" data-name="LINE"><line class="cls-5" x1="265.3455" y1="81.8917" x2="265.3455" y2="84.8877"/></g><g id="ARC-64" data-name="ARC"><path class="cls-5" d="M263.9729,81.8634a.0283.0283,0,0,0-.0283.0283"/></g><g id="ARC-65" data-name="ARC"><path class="cls-5" d="M265.3455,81.8917a.0284.0284,0,0,0-.0284-.0283"/></g><g id="ARC-66" data-name="ARC"><path class="cls-5" d="M265.3171,84.9161a.0284.0284,0,0,0,.0284-.0284"/></g><g id="ARC-67" data-name="ARC"><path class="cls-5" d="M263.9446,84.8877a.0284.0284,0,0,0,.0283.0284"/></g><g id="LWPOLYLINE-258" data-name="LWPOLYLINE"><circle class="cls-5" cx="265.0395" cy="83.3918" r="0.1304"/></g><g id="CIRCLE-46" data-name="CIRCLE"><path class="cls-5" d="M265.6773,83.3835a.0992.0992,0,1,1,.0992.0992.0992.0992,0,0,1-.0992-.0992Z"/></g><g id="LWPOLYLINE-259" data-name="LWPOLYLINE"><path class="cls-5" d="M263.1686,71.7641a1.0961,1.0961,0,0,1,.0264-.24,1.04,1.04,0,0,1,.3416-.5638,1.0486,1.0486,0,0,1,.2394-.1529,1.0208,1.0208,0,0,1,.1663-.06.9828.9828,0,0,1,.1329-.0254,1.0083,1.0083,0,0,1,.1345-.0068q.0795,0,.159,0,.0995,0,.1988,0,.3094.0007.619.0042.4068.0045.8138.0133l.1731.0037v2.0549L266,72.7952q-.4069.0087-.8138.0133-.31.0035-.619.0043-.0995,0-.1988,0-.0795,0-.159,0a.9766.9766,0,0,1-.2674-.0322,1.0115,1.0115,0,0,1-.1663-.06,1.0462,1.0462,0,0,1-.4662-.4241,1.0376,1.0376,0,0,1-.1148-.2926A1.0958,1.0958,0,0,1,263.1686,71.7641Z"/></g><g id="LWPOLYLINE-260" data-name="LWPOLYLINE"><path class="cls-5" d="M264.9665,71.7641v.2249a.0562.0562,0,0,1-.058.0557H264.78a.8678.8678,0,0,1-.0912-.0049.5993.5993,0,0,1-.1148-.024.3686.3686,0,0,1-.11-.0558.2278.2278,0,0,1-.0763-.1.2764.2764,0,0,1,0-.1925.2283.2283,0,0,1,.0763-.1.371.371,0,0,1,.11-.0558.5991.5991,0,0,1,.1148-.0239.8418.8418,0,0,1,.0912-.005h.1281a.0563.0563,0,0,1,.058.0557v.225"/></g><g id="LWPOLYLINE-261" data-name="LWPOLYLINE"><path class="cls-5" d="M263.3577,71.7641a.9323.9323,0,0,1,.0138-.1591.8255.8255,0,0,1,.0372-.14.8671.8671,0,0,1,.07-.1471.8349.8349,0,0,1,.1047-.14.88.88,0,0,1,.145-.1261.8394.8394,0,0,1,.17-.0906.8167.8167,0,0,1,.1517-.0436.7558.7558,0,0,1,.1392-.0129h.2075l.0974,0a.7138.7138,0,0,1,.0924.0065q.09.0123.18.0332a1.0144,1.0144,0,0,1,.154.0492,1.2057,1.2057,0,0,1,.111.0522.3769.3769,0,0,1,.086.063.3571.3571,0,0,1,.0564.0713.5691.5691,0,0,1,.0562.1266,1.13,1.13,0,0,1,.0329.1392q.0135.0793.02.16t.0057.1586q0,.0793-.0057.1586t-.02.16a1.1215,1.1215,0,0,1-.0329.1392.567.567,0,0,1-.0562.1266.3606.3606,0,0,1-.0564.0714.38.38,0,0,1-.086.0629,1.2057,1.2057,0,0,1-.111.0522,1.0148,1.0148,0,0,1-.154.0493q-.089.0208-.18.0331a.6965.6965,0,0,1-.0924.0065l-.0974,0q-.1038,0-.2075,0a.7645.7645,0,0,1-.1392-.0128.8247.8247,0,0,1-.1517-.0437.8394.8394,0,0,1-.17-.0906.879.879,0,0,1-.145-.126.8357.8357,0,0,1-.1047-.1405.8671.8671,0,0,1-.07-.1471.8255.8255,0,0,1-.0372-.14A.9311.9311,0,0,1,263.3577,71.7641Z"/></g><g id="LWPOLYLINE-262" data-name="LWPOLYLINE"><rect class="cls-5" x="264.6823" y="63.9676" width="1.491" height="0.6576"/></g><g id="ELLIPSE-7" data-name="ELLIPSE"><path class="cls-5" d="M256.7269,72.9682c0-.31.3369-.5609.753-.5611s.7534.2506.7536.56-.337.5609-.753.5611-.7535-.2506-.7536-.56Z"/></g><g id="ELLIPSE-8" data-name="ELLIPSE"><path class="cls-5" d="M256.55,72.9683c0-.0042,0-.0084,0-.0126.0092-.3813.4364-.6851.9543-.6784s.93.3211.9208.7025"/></g><g id="LWPOLYLINE-263" data-name="LWPOLYLINE"><polyline class="cls-5" points="256.55 72.968 256.551 74.315 258.426 74.315 258.425 72.98"/></g><g id="LINE-103" data-name="LINE"><line class="cls-5" x1="256.5506" y1="73.8695" x2="258.4259" y2="73.8684"/></g><g id="LWPOLYLINE-264" data-name="LWPOLYLINE"><rect class="cls-5" x="245.7639" y="81.1184" width="1.8191" height="8.6815"/></g></g><g id="Vrstva_9" data-name="Vrstva 9"><g class="cls-6"><g id="HATCH"><path class="cls-7" d="M376.4334-27.4618H-33.4281V328.9534H376.4334ZM28.616,206.9353V28.3524H329.1026V206.9353Z"/><path class="cls-8" d="M-33.4281-24.9526l2.5092-2.5092m-2.5092,5.0548,5.0548-5.0548m-5.0548,7.6,7.6-7.6m-7.6,10.1459,10.146-10.1459M-33.4281-14.77l12.6915-12.6915M-33.4281-12.2247-18.191-27.4618M-33.4281-9.6791l17.7827-17.7827M-33.4281-7.1335-13.1-27.4618M-33.4281-4.5879l22.8739-22.8739m-22.8739,25.42,25.42-25.4195M-33.4281.5032-5.463-27.4618M-33.4281,3.0488-2.9174-27.4618M-33.4281,5.5944-.3719-27.4618M-33.4281,8.14,2.1737-27.4618M-33.4281,10.6856,4.7193-27.4618m-38.1474,40.693,40.693-40.693m-40.693,43.2386L9.8105-27.4618M-33.4281,18.3224,12.3561-27.4618m-45.7842,48.33,48.33-48.33m-48.33,50.8753L17.4473-27.4618M-33.4281,25.9591,19.9928-27.4618M-33.4281,28.5047,22.5384-27.4618M-33.4281,31.05,25.084-27.4618M-33.4281,33.5959,27.63-27.4618M-33.4281,36.1415,30.1752-27.4618M-33.4281,38.6871,32.7208-27.4618M-33.4281,41.2327,35.2664-27.4618m-68.6945,71.24,71.24-71.24m-71.24,73.7856L40.3576-27.4618M-33.4281,48.8694,42.9031-27.4618M-33.4281,51.415,45.4487-27.4618M-33.4281,53.9606,47.9943-27.4618m-81.4224,83.968L50.54-27.4618m-83.968,86.5136L53.0855-27.4618M-33.4281,61.5974,55.6311-27.4618M-33.4281,64.1429,58.1767-27.4618m-91.6048,94.15,94.15-94.15m-94.15,96.6959L63.2678-27.4618M-33.4281,71.78,65.8134-27.4618M-33.4281,74.3253,68.359-27.4618M-33.4281,76.8709,70.9046-27.4618M-33.4281,79.4165,73.45-27.4618M-33.4281,81.9621,75.9958-27.4618M-33.4281,84.5076,78.5414-27.4618M-33.4281,87.0532,81.087-27.4618M-33.4281,89.5988,83.6325-27.4618M-33.4281,92.1444,28.616,30.1M-33.4281,94.69,28.616,32.6459m-62.0441,64.59L28.616,35.1915m-62.0441,64.59L28.616,37.7371m-62.0441,64.59L28.616,40.2827m-62.0441,64.59L28.616,42.8283m-62.0441,64.59L28.616,45.3738m-62.0441,64.59L28.616,47.9194m-62.0441,64.59L28.616,50.465m-62.0441,64.59L28.616,53.0106M-33.4281,117.6,28.616,55.5562m-62.0441,64.59L28.616,58.1018m-62.0441,64.59L28.616,60.6474m-62.0441,64.59L28.616,63.193m-62.0441,64.59L28.616,65.7386m-62.0441,64.59L28.616,68.2841m-62.0441,64.59L28.616,70.83m-62.0441,64.59L28.616,73.3753m-62.0441,64.59L28.616,75.9209m-62.0441,64.59L28.616,78.4665m-62.0441,64.59L28.616,81.0121m-62.0441,64.59L28.616,83.5577m-62.0441,64.59L28.616,86.1033m-62.0441,64.59L28.616,88.6488m-62.0441,64.59L28.616,91.1944m-62.0441,64.59L28.616,93.74m-62.0441,64.59L28.616,96.2856m-62.0441,64.59L28.616,98.8312m-62.0441,64.59L28.616,101.3768m-62.0441,64.59L28.616,103.9224m-62.0441,64.59L28.616,106.468m-62.0441,64.59L28.616,109.0135m-62.0441,64.59L28.616,111.5591m-62.0441,64.59L28.616,114.1047m-62.0441,64.59L28.616,116.65m-62.0441,64.59L28.616,119.1959m-62.0441,64.59L28.616,121.7415m-62.0441,64.59L28.616,124.2871m-62.0441,64.59L28.616,126.8327m-62.0441,64.59,62.0441-62.044m-62.0441,64.59L28.616,131.9238m-62.0441,64.59L28.616,134.4694m-62.0441,64.59L28.616,137.015m-62.0441,64.59L28.616,139.5606m-62.0441,64.59L28.616,142.1062m-62.0441,64.59L28.616,144.6518m-62.0441,64.59L28.616,147.1974m-62.0441,64.59L28.616,149.743m-62.0441,64.59L28.616,152.2885m-62.0441,64.59L28.616,154.8341m-62.0441,64.59L28.616,157.38m-62.0441,64.59L28.616,159.9253m-62.0441,64.59L28.616,162.4709m-62.0441,64.59L28.616,165.0165m-62.0441,64.59L28.616,167.5621m-62.0441,64.59L28.616,170.1077m-62.0441,64.59L28.616,172.6532m-62.0441,64.59L28.616,175.1988m-62.0441,64.59L28.616,177.7444m-62.0441,64.59L28.616,180.29m-62.0441,64.59L28.616,182.8356m-62.0441,64.59L28.616,185.3812m-62.0441,64.59L28.616,187.9268m-62.0441,64.59L28.616,190.4724m-62.0441,64.59L28.616,193.018m-62.0441,64.59L28.616,195.5635m-62.0441,64.59L28.616,198.1091m-62.0441,64.59L28.616,200.6547m-62.0441,64.59L28.616,203.2m-62.0441,64.59L28.616,205.7459M30.364,28.3524,86.1781-27.4618M32.91,28.3524,88.7237-27.4618M35.4551,28.3524,91.2693-27.4618M38.0007,28.3524,93.8149-27.4618M40.5463,28.3524,96.3605-27.4618M43.0919,28.3524,98.9061-27.4618M45.6375,28.3524l55.8142-55.8142M48.1831,28.3524l55.8142-55.8142M50.7287,28.3524l55.8141-55.8142M53.2743,28.3524l55.8141-55.8142M55.82,28.3524,111.634-27.4618M58.3654,28.3524,114.18-27.4618M60.911,28.3524l55.8142-55.8142M63.4566,28.3524l55.8142-55.8142M66.0022,28.3524l55.8142-55.8142M68.5478,28.3524,124.362-27.4618M71.0934,28.3524l55.8141-55.8142M73.639,28.3524l55.8141-55.8142M76.1845,28.3524l55.8142-55.8142M78.73,28.3524l55.8142-55.8142M81.2757,28.3524,137.09-27.4618M83.8213,28.3524l55.8142-55.8142M86.3669,28.3524l55.8142-55.8142M88.9125,28.3524l55.8142-55.8142M91.4581,28.3524l55.8141-55.8142M94.0037,28.3524l55.8141-55.8142M96.5493,28.3524l55.8141-55.8142M99.0948,28.3524,154.909-27.4618M101.64,28.3524l55.8142-55.8142M104.186,28.3524,160-27.4618M106.7316,28.3524l55.8142-55.8142M109.2772,28.3524l55.8142-55.8142M111.8228,28.3524,167.637-27.4618M114.3684,28.3524l55.8141-55.8142M116.914,28.3524l55.8141-55.8142M119.46,28.3524l55.8142-55.8142M122.0051,28.3524l55.8142-55.8142M124.5507,28.3524l55.8142-55.8142M127.0963,28.3524l55.8142-55.8142M129.6419,28.3524l55.8142-55.8142M132.1875,28.3524l55.8142-55.8142M134.7331,28.3524l55.8141-55.8142M137.2787,28.3524l55.8141-55.8142M139.8242,28.3524l55.8142-55.8142M142.37,28.3524,198.184-27.4618M144.9154,28.3524,200.73-27.4618M147.461,28.3524l55.8142-55.8142M150.0066,28.3524l55.8142-55.8142M152.5522,28.3524l55.8142-55.8142M155.0978,28.3524l55.8141-55.8142M157.6434,28.3524l55.8141-55.8142M160.189,28.3524l55.8141-55.8142M162.7345,28.3524l55.8142-55.8142M165.28,28.3524l55.8142-55.8142M167.8257,28.3524,223.64-27.4618M170.3713,28.3524l55.8142-55.8142M172.9169,28.3524l55.8142-55.8142M175.4625,28.3524l55.8142-55.8142M178.0081,28.3524l55.8141-55.8142M180.5537,28.3524l55.8141-55.8142M183.0992,28.3524l55.8142-55.8142M185.6448,28.3524,241.459-27.4618M188.19,28.3524l55.8142-55.8142M190.736,28.3524,246.55-27.4618M193.2816,28.3524l55.8142-55.8142M195.8272,28.3524l55.8142-55.8142M198.3728,28.3524l55.8141-55.8142M200.9184,28.3524l55.8141-55.8142M203.4639,28.3524l55.8142-55.8142M206.01,28.3524l55.8142-55.8142M-33.4281,270.3356l63.4-63.4m-63.4,65.9459,65.9459-65.9459m-65.9459,68.4914,68.4915-68.4914m-68.4915,71.037,71.0371-71.037m-71.0371,73.5826,73.5826-73.5826m-73.5826,76.1282L42.7,206.9353m-76.1282,78.6738,78.6738-78.6738m-78.6738,81.2194,81.2194-81.2194M-33.4281,290.7l83.765-83.765m-83.765,86.3106,86.3106-86.3106m-86.3106,88.8562,88.8562-88.8562M-33.4281,298.337l91.4018-91.4017m-91.4018,93.9473,93.9474-93.9473m-93.9474,96.4929,96.4929-96.4929m-96.4929,99.0385L65.61,206.9353M-33.4281,308.5194,68.156,206.9353M-33.4281,311.065l104.13-104.13m-104.13,106.6753L73.2472,206.9353M-33.4281,316.1562,75.7928,206.9353M-33.4281,318.7017,78.3384,206.9353M-33.4281,321.2473,80.884,206.9353M-33.4281,323.7929,83.43,206.9353M-33.4281,326.3385,85.9751,206.9353M-33.4281,328.8841,88.5207,206.9353M208.5551,28.3524l55.8142-55.8142M211.1007,28.3524l55.8142-55.8142M213.6463,28.3524l55.8142-55.8142M216.1919,28.3524l55.8142-55.8142M218.7375,28.3524l55.8141-55.8142M221.2831,28.3524l55.8141-55.8142M223.8287,28.3524l55.8141-55.8142M226.3742,28.3524l55.8142-55.8142M228.92,28.3524,284.734-27.4618M231.4654,28.3524,287.28-27.4618M234.011,28.3524l55.8142-55.8142M236.5566,28.3524l55.8142-55.8142M239.1022,28.3524l55.8141-55.8142M241.6478,28.3524l55.8141-55.8142M244.1934,28.3524l55.8141-55.8142M246.7389,28.3524l55.8142-55.8142M249.2845,28.3524l55.8142-55.8142M251.83,28.3524l55.8142-55.8142M254.3757,28.3524,310.19-27.4618M256.9213,28.3524l55.8142-55.8142M259.4669,28.3524l55.8142-55.8142M262.0125,28.3524l55.8141-55.8142M264.5581,28.3524l55.8141-55.8142M267.1036,28.3524l55.8142-55.8142m-353.87,356.4152L91.0663,206.9353M-28.4062,328.9534,93.6119,206.9353M-25.8606,328.9534,96.1575,206.9353M-23.315,328.9534,98.7031,206.9353M-20.7694,328.9534,101.2487,206.9353M-18.2239,328.9534,103.7942,206.9353M-15.6783,328.9534,106.34,206.9353M-13.1327,328.9534,108.8854,206.9353M-10.5871,328.9534,111.431,206.9353M-8.0415,328.9534,113.9766,206.9353M-5.4959,328.9534,116.5222,206.9353M-2.95,328.9534,119.0678,206.9353M-.4047,328.9534,121.6134,206.9353M2.1408,328.9534,124.159,206.9353M4.6864,328.9534,126.7045,206.9353M7.232,328.9534,129.25,206.9353M9.7776,328.9534,131.7957,206.9353M12.3232,328.9534,134.3413,206.9353M14.8688,328.9534,136.8869,206.9353M17.4144,328.9534,139.4325,206.9353M19.96,328.9534,141.9781,206.9353M269.6492,28.3524l55.8142-55.8142M272.1948,28.3524,328.009-27.4618M274.74,28.3524l55.8142-55.8142M277.286,28.3524,333.1-27.4618M279.8316,28.3524l55.8142-55.8142M282.3772,28.3524l55.8141-55.8142M284.9228,28.3524l55.8141-55.8142M287.4684,28.3524l55.8141-55.8142M290.0139,28.3524l55.8142-55.8142M292.56,28.3524l55.8142-55.8142M295.1051,28.3524l55.8142-55.8142M297.6507,28.3524l55.8142-55.8142M300.1963,28.3524l55.8142-55.8142M302.7419,28.3524,358.556-27.4618M305.2875,28.3524l55.8141-55.8142M307.8331,28.3524l55.8141-55.8142M310.3786,28.3524l55.8142-55.8142M312.9242,28.3524l55.8142-55.8142M315.47,28.3524,371.284-27.4618M318.0154,28.3524,373.83-27.4618M320.561,28.3524l55.8142-55.8142M22.5056,328.9534,144.5237,206.9353M25.0511,328.9534,147.0692,206.9353M27.5967,328.9534,149.6148,206.9353M323.1066,28.3524l53.3268-53.3268M325.6522,28.3524l50.7812-50.7812M328.1978,28.3524l48.2356-48.2356M30.1423,328.9534,152.16,206.9353M32.6879,328.9534,154.706,206.9353M35.2335,328.9534,157.2516,206.9353M37.7791,328.9534,159.7972,206.9353M40.3247,328.9534,162.3428,206.9353M42.87,328.9534,164.8884,206.9353M45.4158,328.9534,167.4339,206.9353M47.9614,328.9534,169.98,206.9353M50.507,328.9534,172.5251,206.9353M53.0526,328.9534,175.0707,206.9353M55.5982,328.9534,177.6163,206.9353M58.1438,328.9534,180.1619,206.9353M60.6894,328.9534,182.7075,206.9353M63.235,328.9534,185.2531,206.9353M65.7805,328.9534,187.7987,206.9353M68.3261,328.9534,190.3442,206.9353M70.8717,328.9534,192.89,206.9353M73.4173,328.9534,195.4354,206.9353M75.9629,328.9534,197.981,206.9353M78.5085,328.9534,200.5266,206.9353M81.0541,328.9534,203.0722,206.9353M83.6,328.9534,205.6178,206.9353M86.1453,328.9534,208.1634,206.9353M88.6908,328.9534,210.7089,206.9353M91.2364,328.9534,213.2545,206.9353M93.782,328.9534,215.8,206.9353M96.3276,328.9534,218.3457,206.9353M98.8732,328.9534,220.8913,206.9353M101.4188,328.9534,223.4369,206.9353M103.9644,328.9534,225.9825,206.9353M106.51,328.9534,228.5281,206.9353M109.0555,328.9534,231.0736,206.9353M111.6011,328.9534,233.6192,206.9353M114.1467,328.9534,236.1648,206.9353M116.6923,328.9534,238.71,206.9353M119.2379,328.9534,241.256,206.9353M121.7835,328.9534,243.8016,206.9353M124.3291,328.9534,246.3472,206.9353M126.8747,328.9534,248.8928,206.9353M129.42,328.9534,251.4384,206.9353M131.9658,328.9534,253.9839,206.9353M134.5114,328.9534,256.5295,206.9353M137.057,328.9534,259.0751,206.9353M139.6026,328.9534,261.6207,206.9353M142.1482,328.9534,264.1663,206.9353M144.6938,328.9534,266.7119,206.9353M147.2394,328.9534,269.2575,206.9353M149.7849,328.9534,271.8031,206.9353M152.3305,328.9534,274.3486,206.9353M154.8761,328.9534,276.8942,206.9353M157.4217,328.9534,279.44,206.9353M159.9673,328.9534,281.9854,206.9353M162.5129,328.9534,284.531,206.9353M165.0585,328.9534,287.0766,206.9353M167.6041,328.9534,289.6222,206.9353M170.15,328.9534,292.1678,206.9353M172.6952,328.9534,294.7133,206.9353M175.2408,328.9534,297.2589,206.9353M177.7864,328.9534,299.8045,206.9353M180.332,328.9534,302.35,206.9353M182.8776,328.9534,304.8957,206.9353M185.4232,328.9534,307.4413,206.9353M187.9688,328.9534,309.9869,206.9353M190.5144,328.9534,312.5325,206.9353M193.06,328.9534,315.078,206.9353M195.6055,328.9534,317.6236,206.9353M198.1511,328.9534,320.1692,206.9353M200.6967,328.9534,322.7148,206.9353M203.2423,328.9534,325.26,206.9353M205.7879,328.9534,327.806,206.9353m1.2966-176.9421,47.3308-47.3308M329.1026,32.5387,376.4334-14.792M329.1026,35.0843l47.3308-47.3307M329.1026,37.63,376.4334-9.7009M329.1026,40.1755,376.4334-7.1553M329.1026,42.7211,376.4334-4.61M329.1026,45.2667,376.4334-2.0641M329.1026,47.8123,376.4334.4815M329.1026,50.3579,376.4334,3.0271M329.1026,52.9035,376.4334,5.5727M329.1026,55.449,376.4334,8.1183M329.1026,57.9946l47.3308-47.3308M329.1026,60.54l47.3308-47.3308M329.1026,63.0858,376.4334,15.755M329.1026,65.6314l47.3308-47.3308M329.1026,68.177l47.3308-47.3308M329.1026,70.7226l47.3308-47.3308M329.1026,73.2682l47.3308-47.3308M329.1026,75.8137,376.4334,28.483M329.1026,78.3593l47.3308-47.3308M329.1026,80.9049l47.3308-47.3308M329.1026,83.4505,376.4334,36.12M329.1026,85.9961l47.3308-47.3308M329.1026,88.5417l47.3308-47.3308M329.1026,91.0873l47.3308-47.3308M329.1026,93.6329l47.3308-47.3308M329.1026,96.1784l47.3308-47.3307M329.1026,98.724l47.3308-47.3307M329.1026,101.27l47.3308-47.3308m-47.3308,49.8764,47.3308-47.3308m-47.3308,49.8764L376.4334,59.03m-47.3308,49.8764,47.3308-47.3308M329.1026,111.452l47.3308-47.3308m-47.3308,49.8764,47.3308-47.3308m-47.3308,49.8764,47.3308-47.3308m-47.3308,49.8763L376.4334,71.758m-47.3308,49.8763,47.3308-47.3308M329.1026,124.18l47.3308-47.3308m-47.3308,49.8764,47.3308-47.3308m-47.3308,49.8764L376.4334,81.94m-47.3308,49.8764,47.3308-47.3308m-47.3308,49.8764,47.3308-47.3308m-47.3308,49.8764,47.3308-47.3308m-47.3308,49.8763,47.3308-47.3307M329.1026,141.999l47.3308-47.3308m-47.3308,49.8764,47.3308-47.3308M329.1026,147.09l47.3308-47.3308m-47.3308,49.8764,47.3308-47.3308m-47.3308,49.8764,47.3308-47.3308M329.1026,154.727l47.3308-47.3308m-47.3308,49.8764,47.3308-47.3308m-47.3308,49.8763,47.3308-47.3307m-47.3308,49.8763,47.3308-47.3308m-47.3308,49.8764,47.3308-47.3308m-47.3308,49.8764,47.3308-47.3308m-47.3308,49.8764L376.4334,122.67m-47.3308,49.8764,47.3308-47.3308m-47.3308,49.8764,47.3308-47.3308m-47.3308,49.8764,47.3308-47.3308m-47.3308,49.8764,47.3308-47.3308m-47.3308,49.8763,47.3308-47.3307M329.1026,185.274l47.3308-47.3308M329.1026,187.82l47.3308-47.3308m-47.3308,49.8764,47.3308-47.3308m-47.3308,49.8764L376.4334,145.58m-47.3308,49.8764,47.3308-47.3308M329.1026,198.002l47.3308-47.3308m-47.3308,49.8764,47.3308-47.3308m-47.3308,49.8763,47.3308-47.3307m-47.3308,49.8763,47.3308-47.3308m-168.1,170.6455,168.1-168.1m-165.5543,168.1L376.4334,163.3991M213.4246,328.9534,376.4334,165.9447M215.97,328.9534,376.4334,168.49M218.5158,328.9534,376.4334,171.0359M221.0614,328.9534l155.372-155.3719M223.607,328.9534,376.4334,176.1271M226.1526,328.9534,376.4334,178.6726M228.6982,328.9534,376.4334,181.2182m-145.19,147.7352,145.19-145.19m-142.644,145.19,142.644-142.644M236.3349,328.9534,376.4334,188.855M238.8805,328.9534,376.4334,191.4006M241.4261,328.9534,376.4334,193.9462M243.9717,328.9534,376.4334,196.4918M246.5173,328.9534l129.9161-129.916m-127.37,129.916,127.3705-127.37M251.6085,328.9534,376.4334,204.1285M254.1541,328.9534,376.4334,206.6741M256.7,328.9534,376.4334,209.22M259.2452,328.9534,376.4334,211.7653M261.7908,328.9534,376.4334,214.3109M264.3364,328.9534l112.097-112.0969M266.882,328.9534,376.4334,219.4021M269.4276,328.9534,376.4334,221.9476m-104.46,107.0058,104.46-104.46m-101.9146,104.46L376.4334,227.0388M277.0643,328.9534l99.3691-99.369M279.61,328.9534,376.4334,232.13m-94.2779,96.8234,94.2779-94.2778m-91.7323,94.2778,91.7323-91.7322m-89.1867,91.7322,89.1867-89.1866m-86.6411,89.1866,86.6411-86.6411m-84.0955,86.6411,84.0955-84.0955m-81.55,84.0955,81.55-81.55m-79.0043,81.55,79.0043-79.0043m-76.4588,79.0043,76.4588-76.4587M302.52,328.9534,376.4334,255.04m-71.3676,73.9131,71.3676-71.3675m-68.822,71.3675,68.822-68.8219M310.157,328.9534l66.2764-66.2763m-63.7308,66.2763,63.7308-63.7308m-61.1852,63.7308,61.1852-61.1852m-58.64,61.1852,58.64-58.64m-56.0941,58.64,56.0941-56.094m-53.5485,56.094,53.5485-53.5484m-51.0029,53.5484,51.0029-51.0028m-48.4573,51.0028,48.4573-48.4572m-45.9117,48.4572,45.9117-45.9116m-43.3661,45.9116,43.3661-43.3661m-40.82,43.3661,40.82-40.82m-38.2749,40.82,38.2749-38.2749M340.704,328.9534l35.7294-35.7293M343.25,328.9534,376.4334,295.77m-30.6382,33.1837,30.6382-30.6381m-28.0926,30.6381,28.0926-28.0925m-25.547,28.0925,25.547-25.5469M353.432,328.9534l23.0014-23.0014m-20.4558,23.0014,20.4558-20.4558m-17.91,20.4558,17.91-17.91m-15.3646,17.91,15.3646-15.3646m-12.8191,15.3646,12.8191-12.819M366.16,328.9534,376.4334,318.68m-7.7279,10.2734,7.7279-7.7278m-5.1823,7.7278,5.1823-5.1822m-2.6367,5.1822,2.6367-2.6366m-.0911,2.6366.0911-.0911"/></g></g><path class="cls-9" d="M161.29,144.5733v-.4239H162.41v-4.6855l-1.4233.9917-.2075-.376,1.6308-1.103h.5279v5.1728h.9594v.4239Z"/><path class="cls-9" d="M165.5707,143.9736v.6h-.5757v-.6Z"/><path class="cls-9" d="M170.84,140.5835a1.5029,1.5029,0,0,1-1.623,1.6709H167.41v2.3189h-.5356v-5.5967h2.3667A1.4785,1.4785,0,0,1,170.84,140.5835ZM167.41,139.4v2.4546h1.7193c.8154,0,1.1513-.5356,1.1513-1.2632a1.0505,1.0505,0,0,0-1.1513-1.1914Z"/><path class="cls-9" d="M175.8485,140.5835a1.5029,1.5029,0,0,1-1.623,1.6709h-1.8067v2.3189h-.5361v-5.5967H174.25A1.4786,1.4786,0,0,1,175.8485,140.5835Zm-3.43-1.1836v2.4546h1.7188c.8154,0,1.1513-.5356,1.1513-1.2632a1.0505,1.0505,0,0,0-1.1513-1.1914Z"/><path class="cls-9" d="M178.41,142.4546v-.4321h1.8233v.4321Z"/><path class="cls-9" d="M182.7059,141.4868c1.0791,0,1.5186-.3916,1.5186-1.1352,0-.6-.336-1.0474-1.2549-1.0474-.8477,0-1.2393.3838-1.3115,1.0073h-.4961a1.621,1.621,0,0,1,1.8232-1.415c1.1758,0,1.7832.6,1.7832,1.3989,0,.8716-.56,1.3277-1.4716,1.3994.9521.0562,1.5351.5279,1.5351,1.4073a1.9127,1.9127,0,0,1-3.7334.104h.5039c.0713.6318.52,1.04,1.3594,1.04a1.18,1.18,0,0,0,1.335-1.1675c0-.7514-.4883-1.1674-1.5909-1.1674Z"/><path class="cls-9" d="M186.0341,143.91h.5683l-.5918,1.7348h-.3281Z"/><path class="cls-9" d="M191.3124,141.7749c0,1.8071-.76,2.8784-1.9668,2.8784s-1.9668-1.0713-1.9668-2.8784.7588-2.8784,1.9668-2.8784S191.3124,139.9678,191.3124,141.7749Zm-3.3906,0c0,1.3911.4482,2.4146,1.4238,2.4146s1.415-1.0235,1.415-2.4146-.4394-2.4145-1.415-2.4145S187.9218,140.3838,187.9218,141.7749Z"/><path class="cls-9" d="M195.9764,141.7749c0,1.8071-.76,2.8784-1.9668,2.8784s-1.9668-1.0713-1.9668-2.8784.7588-2.8784,1.9668-2.8784S195.9764,139.9678,195.9764,141.7749Zm-3.3906,0c0,1.3911.4483,2.4146,1.4238,2.4146s1.4151-1.0235,1.4151-2.4146-.44-2.4145-1.4151-2.4145S192.5858,140.3838,192.5858,141.7749Z"/><path class="cls-9" d="M200.6405,141.7749c0,1.8071-.76,2.8784-1.9668,2.8784s-1.9668-1.0713-1.9668-2.8784.7588-2.8784,1.9668-2.8784S200.6405,139.9678,200.6405,141.7749Zm-3.3906,0c0,1.3911.4482,2.4146,1.4238,2.4146s1.415-1.0235,1.415-2.4146-.4394-2.4145-1.415-2.4145S197.25,140.3838,197.25,141.7749Z"/></g></svg>